<?xml version="1.0" encoding="utf-8"?>
<!-- Generator: Adobe Illustrator 23.0.3, SVG Export Plug-In . SVG Version: 6.00 Build 0)  -->
<svg version="1.1" id="Layer_1" xmlns="http://www.w3.org/2000/svg" xmlns:xlink="http://www.w3.org/1999/xlink" x="0px" y="0px"
	 viewBox="0 0 263 232.1" style="enable-background:new 0 0 263 232.1;" xml:space="preserve">
<style type="text/css">
	.st0{fill:#1694D2;}
</style>
<title>Asset 5</title>
<g>
	<g id="Capa_1">
		<path class="st0" d="M130.2,49.5c38.1,0,76.3,0,114.4,0c2,0,2.5,0.5,2.5,2.5c-0.1,34.3-0.1,68.7-0.1,103c0,11.5-8,19.6-19.5,19.6
			c-64.9,0-129.8,0-194.7,0c-11.9,0-19.7-7.9-19.7-19.8c0-34.3,0-68.5,0-102.8c0-2,0.5-2.5,2.5-2.5C53.7,49.5,92,49.5,130.2,49.5z
			 M185.3,143.8h11.1c11.4,0,22.7,0,34.1,0c1.9,0,3.2-0.7,3.3-2.7c0.2-1.8-1.1-3-3.3-3.1c-1.5-0.1-2.9-0.1-4.4,0
			c-1.9,0.2-2.3-0.5-2.3-2.3c0.1-12.9,0-25.8,0-38.7c0-0.8,0-1.6-0.1-2.3c-0.1-1.4-1.2-2.5-2.6-2.4c0,0,0,0,0,0
			c-1.5-0.2-2.8,0.9-3,2.3c-0.1,0.7-0.1,1.4-0.1,2.1c0,12.9-0.1,25.8,0,38.7c0,1.9-0.5,2.4-2.3,2.3c-2.5-0.2-5.1-0.2-7.6,0
			c-2,0.2-2.2-0.6-2.2-2.3c0.1-17.9,0-35.7,0-53.6c0-1.5,0.1-3,0-4.4c-0.1-1.8-0.9-2.9-2.9-2.9c-1.5-0.1-2.9,1-3,2.5
			c0,0.1,0,0.2,0,0.3c-0.1,1.2,0,2.3,0,3.5c0,18.4,0,36.8,0,55.2c0,1.6-0.3,2.2-2,2.1c-2.7-0.1-5.4-0.1-8.1,0c-1.7,0.1-2-0.6-2-2.1
			c0.1-9.1,0-18.3,0-27.4c0-2.2,0-4.3,0-6.5c0-1.3-1.1-2.4-2.4-2.4c-0.1,0-0.1,0-0.2,0c-1.4-0.2-2.8,0.8-3,2.2
			c-0.1,0.7-0.1,1.4-0.1,2.1c0,10.7,0,21.3,0,32c0,1.6-0.3,2.2-2,2.1c-2.6-0.2-5.3-0.2-7.9,0c-2,0.1-2.3-0.6-2.3-2.3
			c0.1-16.4,0-32.8,0-49.2c0-0.8,0-1.5-0.1-2.3c-0.1-1.4-1.3-2.6-2.7-2.5c0,0-0.1,0-0.1,0c-1.5-0.1-2.8,0.9-3,2.4
			c-0.1,0.7-0.1,1.4-0.1,2.1c0,16.5,0,33,0.1,49.4c0,2.2-0.6,2.6-2.6,2.5c-2.5-0.2-4.9-0.2-7.4,0c-1.7,0.1-2.2-0.4-2.2-2.1
			c0.1-12.7,0.1-25.4,0.1-38.1c0-0.9,0-1.9,0-2.8c0.1-1.4-0.9-2.7-2.4-2.8c-0.1,0-0.1,0-0.2,0c-1.5-0.3-2.9,0.7-3.2,2.2
			c0,0,0,0.1,0,0.1c-0.1,0.8-0.2,1.7-0.1,2.5c0,12.9,0,25.8,0,38.8c0,1.6-0.4,2.2-2,2.1c-1.8-0.1-3.6-0.1-5.3,0
			c-1.4,0-2.5,1.2-2.5,2.6c0,0.1,0,0.1,0,0.2c-0.1,1.5,1,2.7,2.4,2.8c0,0,0,0,0,0c0.8,0,1.5,0,2.3,0L185.3,143.8z M97.8,120.8H119
			c3.6,0,4.8-0.7,4.9-2.8s-1.4-3.1-4.9-3.1c-14.3,0-28.6,0-42.9,0c-1.5,0-2.1-0.3-2-1.9c0.1-2,0.1-4,0-6c-0.1-2.4-0.9-3.3-3.4-3.4
			c-6.9,0-13.8,0-20.6,0c-2.4,0-3.3,1-3.4,3.4c-0.1,1.8-0.1,3.6,0,5.3c0.2,1.9-0.3,2.7-2.4,2.6c-3.2-0.2-6.3-0.1-9.5-0.1
			c-2.5,0-3.7,1-3.7,2.8s1.2,3,3.7,3.1c3.2,0,6.5,0.1,9.7,0c1.6-0.1,2,0.5,1.9,2c-0.1,1.9,0,3.9,0,5.8c0,2.6,0.9,3.5,3.5,3.5
			c6.8,0,13.6,0,20.4,0c2.5,0,3.5-1,3.5-3.5c0-2,0.1-4,0-6c-0.1-1.5,0.5-1.8,1.8-1.7C83,120.9,90.4,120.9,97.8,120.8L97.8,120.8z
			 M55.4,98.2h16.5c2,0,4.7-0.7,5.8,0.3c1.3,1.2,0.3,3.9,0.4,6c0,0.3,0,0.6,0,0.9c0,2.2,1.1,3.3,3.3,3.3c6.5,0,13,0,19.5,0
			c2.2,0,3.1-1.1,3.2-3.4c0-1.8,0.1-3.6,0-5.3c-0.1-1.5,0.4-1.9,1.9-1.9c4.9,0.1,9.8,0.1,14.6,0c2.2,0,3.4-1.1,3.3-3
			c-0.2-2.1-1.5-2.9-3.5-2.9c-4.9,0-9.7,0-14.6,0c-1.3,0-1.8-0.3-1.7-1.7c0.1-1.9,0-3.9,0-5.8c0.2-1.5-0.9-2.9-2.4-3.1
			c-0.2,0-0.4,0-0.6,0c-6.7-0.1-13.3-0.1-20,0c-1.6-0.1-2.9,1.1-3,2.7c0,0.1,0,0.3,0,0.4c-0.1,1.7-0.1,3.4,0,5.1
			c0.2,1.9-0.3,2.4-2.3,2.4c-13.6-0.1-27.2-0.1-40.8,0c-2.6,0-3.9,0.9-4,2.8s1.2,3.1,4,3.1L55.4,98.2z M91.8,75.9h27.2
			c3.7,0,5-0.8,4.9-3c-0.1-2.2-1.5-2.9-4.8-2.9c-18.4,0-36.8,0-55.2,0.1c-2.1,0-2.6-0.6-2.4-2.6c0.1-1.6,0.1-3.2,0-4.9
			c0.2-1.6-1-3-2.6-3.2c-0.2,0-0.4,0-0.6,0c-6.6,0-13.2-0.1-19.7,0c-2,0-3.1,1.2-3.1,3.3c0,1.8,0,3.6,0,5.3c0,1.3,0,2.1-1.8,2.1
			c-1.4-0.1-2.6,1-2.6,2.4c0,0,0,0,0,0.1c-0.1,1.5,0.4,3,1.9,3c3.1,0,2.4,2.1,2.5,3.9c0,1.2,0,2.5,0,3.7c0.1,2.2,1,3.3,3.3,3.3
			c6.5,0.1,13,0.1,19.5,0c2.2,0,3.2-1.1,3.2-3.4c0.1-1.8,0.1-3.6,0-5.3c-0.1-1.5,0.4-1.9,1.9-1.9C72.7,75.9,82.2,75.9,91.8,75.9z
			 M61.2,138.1H37.1c-1.2,0-2.5,0-3.7,0.1c-1.4,0.1-2.5,1.3-2.4,2.7c0,0,0,0,0,0c-0.2,1.4,0.8,2.7,2.2,2.9c0,0,0.1,0,0.1,0
			c0.8,0.1,1.7,0.1,2.5,0.1h48c5.6,0,5.6,0,5.6,5.7c0,0.6,0,1.2,0,1.9c0,3,0.9,3.9,3.9,3.9c5.7,0,11.4,0,17.2,0c7,0,7,0,7-7
			c0-1.4-0.4-3.1,0.3-4s2.4-0.3,3.7-0.4c1.4,0,2.5-1.1,2.6-2.5c0-0.1,0-0.2,0-0.2c0.2-1.4-0.7-2.8-2.2-3c0,0-0.1,0-0.1,0
			c-0.8-0.1-1.5-0.2-2.3-0.1c-1.5,0.2-2.1-0.3-2-1.9c0.1-2,0-4,0-6c0-2.4-1-3.5-3.3-3.5c-7.2-0.1-14.4,0-21.6,0
			c-2.2,0-3.2,1.2-3.2,3.4c0,2.2-0.1,4,0,6c0.1,1.7-0.5,2-2.1,2C78.7,138,70,138.1,61.2,138.1z"/>
		<path class="st0" d="M130,44c-38.1,0-76.1,0-114.2,0.1c-2.5,0-3-0.7-2.8-2.9c0.3-3.8-0.4-7.7,0.4-11.6c1.6-9.1,9.7-15.7,19-15.5
			c15.5,0,31.1,0,46.6,0c49.4,0,98.7,0.1,148-0.1c10.6,0,18.5,7.3,19.8,16.2c0.6,4.2,0.1,8.5,0.2,12.7c0,1.7-1.3,1-2,1
			c-12.8,0-25.5,0-38.3,0L130,44L130,44z M100.6,28.6H66.5c-10.3,0-20.6,0-30.9,0c-2.6,0-3.7,1.1-3.5,3.2c0.2,2,1.3,2.7,4.3,2.7
			h128.1c0.7,0,1.4,0,2.1-0.1c1.4-0.3,2.3-1.5,2.2-2.9c0.1-1.4-0.9-2.6-2.3-2.8c-0.8-0.1-1.7-0.2-2.5-0.1H100.6z M192.1,34.6
			c1.7,0,3.4,0.1,5.1,0c1.9-0.1,3.1-1,3-3.1s-1.3-2.7-3.1-2.8c-3.4-0.1-6.8,0-10.2,0c-1.9,0-3.1,0.9-3.1,2.9s1.3,2.9,3.1,3
			C188.7,34.6,190.4,34.6,192.1,34.6z M219.8,34.6c1.7,0,3.4,0.1,5.1,0c1.9-0.1,3.1-1,3.1-3s-1.3-2.9-3.2-2.9c-3.3,0-6.6,0-10,0
			c-1.9,0-3.1,0.8-3.2,2.9c0,1.9,1.1,3,3.3,3C216.6,34.6,218.2,34.6,219.8,34.6z"/>
		<path class="st0" d="M130,219.5c-18,0-36-0.1-54,0c-4.3,0-4.7-2.1-4.2-5c1.2-7.4,7.5-12.8,15-12.9c28.8,0,57.7,0,86.5,0
			c7.4-0.2,13.9,5.1,15.1,12.4c0.8,4.1-0.2,5.5-4.3,5.5L130,219.5z"/>
		<path class="st0" d="M130.3,180c13.1,0,26.1,0,39.2,0c1.8,0,2.4,0.3,2.3,2.3c-0.2,4.1-0.1,8.2,0,12.3c0,1.3-0.4,1.7-1.7,1.7
			c-26.7,0-53.5,0-80.2,0c-1.4,0-1.6-0.5-1.6-1.8c0.1-4.1,0.1-8.2,0-12.3c-0.1-1.7,0.4-2.2,2.2-2.2C103.8,180.1,117.1,180,130.3,180
			L130.3,180z"/>
		<path class="st0" d="M68.3,118c0,2.2,0,4.5,0,6.7c0,1-0.3,1.4-1.3,1.3c-4.5-0.1-9-0.1-13.4,0c-1.1,0-1.5-0.3-1.5-1.4
			c0-4.6,0-9.1,0-13.7c0-1.1,0.3-1.5,1.5-1.5c4.5,0,8.9,0,13.4,0c1,0,1.3,0.4,1.3,1.3C68.2,113.2,68.3,115.6,68.3,118z"/>
		<path class="st0" d="M84,94.6c0.2-2-1-5.3,0.5-6.7c1.4-1.2,4.6-0.3,6.9-0.4c1.8,0,3.7,0.1,5.6,0c1.2-0.1,1.6,0.2,1.6,1.5
			c-0.1,4-0.1,8,0,12.1c0,1.1-0.3,1.4-1.4,1.4c-3.9-0.1-7.9-0.1-11.8,0c-1.2,0-1.3-0.5-1.3-1.5C84.1,99,84,97,84,94.6z"/>
		<path class="st0" d="M55.4,72.7c0,1.8-0.1,3.6,0,5.3c0.1,1.6-0.2,2.3-2.1,2.2c-3.6-0.2-7.3-0.1-10.9,0c-1.3,0-1.7-0.4-1.6-1.7
			c0.1-3.9,0.1-7.7,0-11.6c0-1.2,0.2-1.8,1.6-1.7c3.9,0.1,7.7,0.1,11.6,0c1.1,0,1.5,0.3,1.4,1.4C55.4,68.7,55.4,70.7,55.4,72.7z"/>
		<path class="st0" d="M94.9,140.6c0-2.4,0-4.8,0-7.2c0-1,0.3-1.4,1.3-1.4c4.8,0,9.6,0,14.3,0c1.1,0,1.3,0.5,1.3,1.4
			c0,4.8,0,9.6,0,14.4c0,1.1-0.3,1.5-1.4,1.5c-4.7,0-9.4-0.1-14.1,0c-1.2,0-1.4-0.5-1.4-1.5C94.9,145.4,94.9,143,94.9,140.6
			L94.9,140.6z"/>
	</g>
</g>
</svg>
