<?xml version="1.0" encoding="utf-8"?>
<!-- Generator: Adobe Illustrator 23.0.3, SVG Export Plug-In . SVG Version: 6.00 Build 0)  -->
<svg version="1.1" id="Layer_1" xmlns="http://www.w3.org/2000/svg" xmlns:xlink="http://www.w3.org/1999/xlink" x="0px" y="0px"
	 viewBox="0 0 547.1 378.3" style="enable-background:new 0 0 547.1 378.3;" xml:space="preserve">
<style type="text/css">
	.st0{fill:#1694D2;}
	.st1{fill:#FFFFFF;}
	.st2{fill:#CCCCD1;}
	.st3{fill:#F1EFF3;}
	.st4{fill:#A1A9D6;}
</style>
<title>Asset 13</title>
<rect x="384" y="100.1" class="st0" width="23.1" height="194.1"/>
<rect x="401.5" y="278.6" class="st1" width="5.5" height="1.5"/>
<rect x="401.5" y="274.4" class="st1" width="5.5" height="1.5"/>
<rect x="398.1" y="270.1" class="st1" width="8.8" height="1.5"/>
<rect x="401.5" y="265.7" class="st1" width="5.5" height="1.5"/>
<rect x="401.5" y="261.4" class="st1" width="5.5" height="1.5"/>
<rect x="398.1" y="257.2" class="st1" width="8.8" height="1.5"/>
<rect x="401.5" y="252.8" transform="matrix(1 -1.047197e-03 1.047197e-03 1 -0.2653 0.4234)" class="st1" width="5.5" height="1.5"/>
<rect x="401.5" y="248.5" class="st1" width="5.5" height="1.5"/>
<rect x="398.1" y="244.2" class="st1" width="8.8" height="1.5"/>
<rect x="401.4" y="239.9" class="st1" width="5.5" height="1.5"/>
<rect x="401.4" y="235.6" class="st1" width="5.5" height="1.5"/>
<rect x="398.1" y="231.3" class="st1" width="8.8" height="1.5"/>
<rect x="398.1" y="231.3" class="st1" width="8.8" height="1.5"/>
<rect x="401.4" y="226.9" class="st1" width="5.5" height="1.5"/>
<rect x="401.4" y="222.7" class="st1" width="5.5" height="1.5"/>
<rect x="398.1" y="218.4" class="st1" width="8.8" height="1.5"/>
<rect x="398.1" y="218.4" class="st1" width="8.8" height="1.5"/>
<rect x="401.4" y="214" class="st1" width="5.5" height="1.5"/>
<rect x="401.4" y="209.7" class="st1" width="5.5" height="1.5"/>
<rect x="398.1" y="205.5" class="st1" width="8.8" height="1.5"/>
<rect x="398.1" y="205.5" class="st1" width="8.8" height="1.5"/>
<rect x="401.4" y="201.1" class="st1" width="5.5" height="1.5"/>
<rect x="401.4" y="196.8" class="st1" width="5.5" height="1.5"/>
<rect x="398" y="192.5" class="st1" width="8.8" height="1.5"/>
<rect x="398" y="192.5" class="st1" width="8.8" height="1.5"/>
<rect x="401.4" y="188.2" class="st1" width="5.5" height="1.5"/>
<rect x="401.4" y="183.9" class="st1" width="5.5" height="1.5"/>
<rect x="398" y="179.6" class="st1" width="8.8" height="1.5"/>
<rect x="398" y="179.6" class="st1" width="8.8" height="1.5"/>
<rect x="401.4" y="175.3" class="st1" width="5.5" height="1.5"/>
<rect x="401.4" y="171" class="st1" width="5.5" height="1.5"/>
<rect x="398" y="166.7" class="st1" width="8.8" height="1.5"/>
<rect x="398" y="166.7" class="st1" width="8.8" height="1.5"/>
<rect x="401.4" y="162.3" class="st1" width="5.5" height="1.5"/>
<rect x="401.4" y="158.1" class="st1" width="5.5" height="1.5"/>
<rect x="398" y="153.8" class="st1" width="8.8" height="1.5"/>
<rect x="398" y="153.8" class="st1" width="8.8" height="1.5"/>
<rect x="401.4" y="149.4" class="st1" width="5.5" height="1.5"/>
<rect x="401.3" y="145.1" class="st1" width="5.5" height="1.5"/>
<rect x="398" y="140.9" class="st1" width="8.8" height="1.5"/>
<rect x="398" y="140.9" class="st1" width="8.8" height="1.5"/>
<rect x="401.3" y="136.5" class="st1" width="5.5" height="1.5"/>
<rect x="401.3" y="132.2" transform="matrix(1 -1.047197e-03 1.047197e-03 1 -0.139 0.4232)" class="st1" width="5.5" height="1.5"/>
<rect x="398" y="127.9" class="st1" width="8.8" height="1.5"/>
<rect x="398" y="127.9" class="st1" width="8.8" height="1.5"/>
<rect x="401.3" y="123.6" class="st1" width="5.5" height="1.5"/>
<rect x="401.3" y="119.3" class="st1" width="5.5" height="1.5"/>
<rect x="398" y="115" class="st1" width="8.8" height="1.5"/>
<rect x="398" y="115" class="st1" width="8.8" height="1.5"/>
<rect x="401.3" y="110.7" class="st1" width="5.5" height="1.5"/>
<rect x="401.3" y="106.4" class="st1" width="5.5" height="1.5"/>
<rect x="398" y="102.1" class="st1" width="8.8" height="1.5"/>
<rect x="401.5" y="291.6" class="st1" width="5.5" height="1.5"/>
<rect x="401.5" y="287.3" class="st1" width="5.5" height="1.5"/>
<rect x="398.1" y="283" class="st1" width="8.8" height="1.5"/>
<rect x="401.8" y="339.4" class="st0" width="83.8" height="1.9"/>
<rect x="141.5" y="321.4" class="st0" width="185.6" height="1.9"/>
<rect x="369.7" y="339.4" class="st0" width="16.9" height="1.9"/>
<rect x="497.9" y="356.9" class="st0" width="49.2" height="1.9"/>
<rect x="479.1" y="356.9" class="st0" width="9.9" height="1.9"/>
<rect x="494.2" y="322.5" class="st0" width="28.6" height="1.9"/>
<rect x="533.4" y="322.5" class="st0" width="9.7" height="1.9"/>
<rect x="483.2" y="322.5" class="st0" width="5.8" height="1.9"/>
<rect x="163" y="376.4" class="st0" width="28.6" height="1.9"/>
<rect x="202.3" y="376.4" class="st0" width="9.7" height="1.9"/>
<rect x="152.1" y="376.4" class="st0" width="5.8" height="1.9"/>
<rect x="128.9" y="363.8" class="st0" width="55.5" height="1.9"/>
<rect x="204.9" y="363.8" class="st0" width="18.8" height="1.9"/>
<rect x="107.7" y="363.8" class="st0" width="11.2" height="1.9"/>
<rect x="50.2" y="332.1" class="st0" width="23.9" height="1.9"/>
<rect x="85.4" y="332.1" class="st0" width="10.3" height="1.9"/>
<path class="st2" d="M60.9,259.5c0-0.1-0.2-0.3-0.2-0.4v-19c0.1-1.4,1.3-2.6,2.7-2.5H75c1.4,0,2.6,1.1,2.6,2.5c0,0,0,0,0,0v19
	c0,0.1,0,0.3,0,0.4c6.9-2.9,11.4-9.7,11.4-17.2c0-7.5-5.2-15.1-11.5-18.7v-82.3c0-4.8-3.4-8.4-8.2-8.4l0,0c-4.7-0.1-8.6,3.6-8.7,8.4
	c0,0,0,0,0,0.1v82.3c-7,3.7-11.3,10.9-11.4,18.7C49.4,249.8,53.9,256.6,60.9,259.5z M69.3,137.8c1.9,0,3.4,1.5,3.4,3.3
	c0,1.9-1.5,3.4-3.3,3.4c-1.9,0-3.4-1.5-3.4-3.3c0,0,0,0,0,0C66,139.3,67.5,137.8,69.3,137.8L69.3,137.8z"/>
<path class="st0" d="M274.4,11.6v-0.1c0-0.9,0.6-1.8,1.5-2l9.4-6.6c0.9-0.7,2.3-0.4,2.9,0.5s0.4,2.3-0.5,2.9l-7.5,5.2l7.5,5.2
	c0.9,0.7,1.1,1.9,0.5,2.9c-0.7,0.9-2,1.2-2.9,0.5c0,0,0,0,0,0l-9.4-6.5c-0.5-0.1-0.9-0.4-1.2-0.8C274.5,12.5,274.4,12.1,274.4,11.6z
	 M276.3,11.6h-1H276.3c0,0,0,0.1,0,0.1c0,0,0.1,0.1,0.1,0.1h0.2l9.8,6.8c0.1,0.1,0.2,0,0.3,0c0,0,0,0,0,0c0,0,0.1-0.1,0-0.3
	l-9.7-6.8l9.7-6.8c0.2-0.1,0.1-0.2,0-0.3c-0.1-0.1-0.2-0.1-0.3,0l-9.8,6.8h-0.2c-0.1,0-0.1,0-0.1,0.1c0,0,0,0.1,0,0.1L276.3,11.6z"
	/>
<path class="st0" d="M284.6,11.6v-0.1c0-0.4,0.1-0.8,0.4-1.2c0.3-0.4,0.7-0.7,1.2-0.8l9.4-6.6c1-0.7,2.3-0.4,2.9,0.5
	c0.6,1,0.4,2.2-0.5,2.9l-7.5,5.2l7.5,5.2c0.9,0.7,1.2,2,0.5,2.9c-0.3,0.5-0.8,0.8-1.3,0.9c-0.5,0.1-1.1,0-1.6-0.3l-9.4-6.5
	c-0.5-0.1-0.9-0.4-1.2-0.8C284.8,12.5,284.6,12.1,284.6,11.6z M286.5,11.6h-1H286.5c0,0,0,0.1,0,0.1c0,0,0.1,0.1,0.1,0.1h0.2
	l9.8,6.8c0,0,0.1,0,0.1,0c0.1,0,0.1,0,0.1-0.1c0-0.1,0.1-0.1,0-0.3l-9.8-6.8l9.8-6.8c0.2-0.1,0.1-0.2,0-0.3c-0.1-0.1-0.2-0.1-0.3,0
	l-9.8,6.8h-0.2c-0.1,0-0.1,0-0.1,0.1c0,0,0,0.1,0,0.1L286.5,11.6z"/>
<path class="st0" d="M294.9,11.2V11c0-0.4,0.1-0.8,0.4-1.2c0.3-0.4,0.7-0.7,1.2-0.8l9.4-6.6c1-0.7,2.3-0.4,2.9,0.5
	c0.6,0.9,0.4,2.2-0.5,2.9l-7.5,5.2l7.5,5.2c0.9,0.7,1.2,2,0.5,2.9c-0.7,0.9-2,1.2-2.9,0.5c0,0,0,0,0,0l-9.4-6.5
	c-0.5-0.1-0.9-0.4-1.2-0.8C295,12,294.9,11.6,294.9,11.2z M296.8,11.2h-1H296.8c0,0,0,0.1,0,0.1c0,0,0.1,0.1,0.1,0.1h0.2l9.8,6.8
	c0.1,0.1,0.2,0.1,0.3,0c0,0,0,0,0,0c0-0.1,0.1-0.2,0-0.3l-9.7-6.8l9.7-6.8c0.2-0.1,0.1-0.2,0-0.3c0-0.1-0.1-0.2-0.3-0.1c0,0,0,0,0,0
	l-9.8,6.8H297c0,0-0.1,0-0.1,0.1c0,0,0,0.1,0,0.1L296.8,11.2z"/>
<path class="st0" d="M305.2,11.2V11c0-0.4,0.1-0.8,0.4-1.2c0.3-0.4,0.7-0.7,1.2-0.8l9.4-6.6c0.9-0.7,2.2-0.4,2.9,0.5
	c0.6,1,0.4,2.2-0.5,2.9l-7.5,5.2l7.5,5.2c0.9,0.7,1.2,2,0.5,2.9c-0.3,0.5-0.8,0.8-1.4,0.9c-0.5,0.1-1.1,0-1.6-0.3l-9.4-6.5
	c-0.5-0.1-0.9-0.4-1.2-0.8C305.3,12,305.2,11.6,305.2,11.2z M307.1,11.2L307.1,11.2c0,0,0,0.1,0,0.1c0,0,0.1,0.1,0.1,0.1h0.2
	l9.8,6.8c0.1,0.1,0.2,0,0.3,0c0,0,0.1-0.1,0-0.3l-9.8-6.8l9.8-6.8c0.2-0.1,0.1-0.2,0-0.3c-0.1-0.1-0.2-0.1-0.3,0c0,0,0,0,0,0
	l-9.8,6.8h-0.2c-0.1,0-0.1,0-0.1,0.1c0,0,0,0.1,0,0.1V11.2z"/>
<path class="st0" d="M495.1,144.4c-0.6,0.2-1.1,0.4-1.5,0.8c-0.4,0.4-0.6,0.9-0.7,1.4c-0.2,1-0.2,2-0.2,3c0,0.6,0,1.3-0.1,1.9
	c-0.1,0.4-0.2,0.8-0.4,1.2c-0.2,0.3-0.4,0.5-0.7,0.7c-0.4,0.2-0.8,0.2-1.2,0.3v2.7c0.5,0,1.1,0.1,1.5,0.4c0.4,0.3,0.6,0.8,0.8,1.3
	c0.2,0.9,0.2,1.8,0.2,2.7c0,0.9,0,1.7,0.2,2.6c0.1,0.5,0.4,1,0.8,1.4c0.4,0.4,0.9,0.7,1.4,0.8c0.8,0.2,1.6,0.3,2.3,0.3h0.6v-2.7
	c-0.5,0-1.1,0-1.6-0.1c-0.2-0.1-0.4-0.2-0.5-0.4c-0.1-0.3-0.2-0.7-0.2-1c0-0.4,0-1.1-0.1-2.4c0-0.7-0.1-1.3-0.3-2
	c-0.1-0.5-0.4-0.9-0.7-1.3c-0.3-0.4-0.7-0.7-1.1-0.9c0.4-0.3,0.8-0.6,1.1-0.9c0.3-0.3,0.5-0.7,0.6-1.1c0.2-0.6,0.3-1.2,0.3-1.8
	c0.1-1.3,0.1-2.2,0.1-2.7c0-0.3,0-0.7,0.2-1c0.1-0.2,0.3-0.3,0.5-0.4c0.5-0.1,1.1-0.2,1.6-0.1v-2.7h-0.6
	C496.5,144.2,495.8,144.3,495.1,144.4z"/>
<path class="st0" d="M515.8,156.4v-2.7c-0.5,0-1.1-0.1-1.5-0.4c-0.4-0.3-0.7-0.8-0.8-1.3c-0.2-0.9-0.2-1.8-0.2-2.7
	c0-0.9,0-1.7-0.2-2.6c-0.1-0.5-0.4-1-0.8-1.4c-0.4-0.4-0.8-0.7-1.4-0.8c-0.8-0.2-1.5-0.3-2.3-0.3h-0.6v2.7c0.6,0,1.1,0,1.6,0.2
	c0.2,0.1,0.4,0.2,0.5,0.4c0.1,0.4,0.2,0.7,0.2,1.1c0,1.2,0.1,2.3,0.2,3.5c0.1,0.7,0.3,1.3,0.7,1.9c0.3,0.4,0.8,0.8,1.2,1.1
	c-0.4,0.2-0.8,0.5-1.1,0.9c-0.3,0.4-0.5,0.8-0.6,1.2c-0.2,0.6-0.3,1.2-0.3,1.9c-0.1,1.3-0.1,2.2-0.1,2.6c0,0.3,0,0.7-0.2,1
	c-0.1,0.2-0.3,0.4-0.5,0.4c-0.5,0.1-1.1,0.2-1.6,0.1v2.7h0.6c0.7,0,1.5,0,2.2-0.2c0.6-0.1,1.1-0.4,1.6-0.8c0.4-0.4,0.6-0.9,0.7-1.4
	c0.2-1,0.2-2,0.2-3.1c0-0.6,0-1.3,0.1-1.9c0.1-0.4,0.2-0.8,0.4-1.2c0.2-0.3,0.4-0.5,0.7-0.7C515,156.5,515.4,156.4,515.8,156.4
	L515.8,156.4z"/>
<rect x="498.4" y="150.4" class="st0" width="9.2" height="2.4"/>
<rect x="498.4" y="153.8" class="st0" width="9.2" height="2.4"/>
<rect x="498.4" y="157.3" class="st0" width="5.3" height="2.4"/>
<path class="st0" d="M117.2,126.3h224.6c6.6,0,12,5.4,12,12v148.4c0,6.6-5.4,12-12,12H117.2c-6.6,0-12-5.4-12-12V138.2
	C105.2,131.6,110.6,126.3,117.2,126.3z"/>
<path class="st2" d="M127,126.3h224.5c6.6,0,12,5.4,12,12v148.4c0,6.6-5.4,12-12,12H127c-6.6,0-12-5.4-12-12V138.2
	C115,131.6,120.4,126.3,127,126.3z"/>
<rect x="126.1" y="140" class="st1" width="224.8" height="144.9"/>
<path class="st3" d="M459.2,306.8c0-4.5-3.6-8.1-8.1-8.1c0,0,0,0,0,0H233c-6.2,0-11.2,3.6-11.2,8.1s5.1,8.1,11.2,8.1h218.1
	C455.6,314.9,459.2,311.3,459.2,306.8C459.2,306.8,459.2,306.8,459.2,306.8z"/>
<path class="st0" d="M375.7,299v0.7c0,2.5-2.1,4.6-4.6,4.6l0,0h-68.7c-2.5,0-4.6-2.1-4.6-4.6V299H375.7z"/>
<path class="st0" d="M246.1,306.8c0,4.5-3.9,8.1-8.8,8.1H125.6c-4.8,0-8.8-3.6-8.8-8.1s3.9-8.1,8.8-8.1h111.8
	C242.2,298.7,246.1,302.3,246.1,306.8z"/>
<rect x="154" y="41.3" class="st3" width="188.2" height="243.6"/>
<rect x="165.8" y="55.5" class="st0" width="86.4" height="3.4"/>
<rect x="165.8" y="63.9" class="st0" width="17.5" height="3.4"/>
<rect x="165.8" y="72.2" class="st2" width="37.4" height="3.4"/>
<rect x="175.2" y="80.6" class="st0" width="30.6" height="3.4"/>
<rect x="175.2" y="89" class="st0" width="30.6" height="3.4"/>
<rect x="196.4" y="97.4" class="st0" width="29.8" height="3.4"/>
<rect x="194.2" y="63.9" class="st2" width="55.4" height="3.4"/>
<rect x="257.6" y="63.9" class="st2" width="26.5" height="3.4"/>
<rect x="294.1" y="63.9" class="st2" width="35.7" height="3.4"/>
<rect x="212" y="72.2" class="st0" width="31.2" height="3.4"/>
<rect x="215.1" y="80.6" class="st2" width="17.9" height="3.4"/>
<rect x="215.1" y="89" class="st2" width="30.6" height="3.4"/>
<rect x="241.4" y="80.6" class="st2" width="34" height="3.4"/>
<rect x="282.3" y="80.6" class="st2" width="17.8" height="3.4"/>
<rect x="307.7" y="80.6" class="st2" width="22.1" height="3.4"/>
<rect x="252.5" y="89" class="st2" width="38.6" height="3.4"/>
<rect x="296.9" y="89" class="st2" width="11.5" height="3.4"/>
<rect x="234.6" y="97.4" class="st2" width="22.1" height="3.4"/>
<rect x="175.2" y="114.2" class="st0" width="30.6" height="3.4"/>
<rect x="175.2" y="122.6" class="st0" width="30.6" height="3.4"/>
<rect x="215.1" y="114.2" class="st2" width="17.9" height="3.4"/>
<rect x="215.1" y="122.6" class="st2" width="27.6" height="3.4"/>
<rect x="241.4" y="114.2" class="st2" width="26.1" height="3.4"/>
<rect x="272.8" y="114.2" class="st2" width="13.7" height="3.4"/>
<rect x="292.4" y="114.2" class="st2" width="17" height="3.4"/>
<rect x="269.5" y="122.6" class="st2" width="30.6" height="3.4"/>
<rect x="175.2" y="130.9" class="st0" width="30.6" height="3.4"/>
<rect x="175.2" y="139.3" class="st0" width="30.6" height="3.4"/>
<rect x="215.1" y="130.9" class="st2" width="17.9" height="3.4"/>
<rect x="215.1" y="139.3" class="st2" width="56.1" height="3.4"/>
<rect x="241.4" y="130.9" class="st2" width="34" height="3.4"/>
<rect x="282.3" y="130.9" class="st2" width="17.8" height="3.4"/>
<rect x="307.7" y="130.9" class="st2" width="22.1" height="3.4"/>
<rect x="278" y="139.3" class="st2" width="31.5" height="3.4"/>
<rect x="248.8" y="122.6" class="st2" width="13" height="3.4"/>
<rect x="165.8" y="156.1" class="st0" width="17.5" height="3.4"/>
<rect x="165.8" y="164.5" class="st2" width="37.4" height="3.4"/>
<rect x="175.2" y="172.9" class="st0" width="30.6" height="3.4"/>
<rect x="175.2" y="181.2" class="st0" width="30.6" height="3.4"/>
<rect x="196.4" y="189.6" class="st0" width="29.8" height="3.4"/>
<rect x="194.2" y="156.1" class="st2" width="30.8" height="3.4"/>
<rect x="232.9" y="156.1" class="st2" width="15.5" height="3.4"/>
<rect x="258.5" y="156.1" class="st2" width="49.4" height="3.4"/>
<rect x="212" y="164.5" class="st0" width="31.2" height="3.4"/>
<rect x="215.1" y="172.9" class="st2" width="34.9" height="3.4"/>
<rect x="215.1" y="181.2" class="st2" width="23.8" height="3.4"/>
<rect x="258.5" y="172.9" class="st2" width="25.9" height="3.4"/>
<rect x="245.7" y="181.2" class="st2" width="45.4" height="3.4"/>
<rect x="296.9" y="181.2" class="st2" width="11.5" height="3.4"/>
<rect x="234.6" y="189.6" class="st2" width="22.1" height="3.4"/>
<rect x="261.7" y="189.6" class="st2" width="41.2" height="3.4"/>
<rect x="309" y="189.6" class="st2" width="12.3" height="3.4"/>
<rect x="175.2" y="206.4" class="st0" width="30.6" height="3.4"/>
<rect x="175.2" y="214.8" class="st0" width="30.6" height="3.4"/>
<rect x="215.1" y="206.4" class="st2" width="50.4" height="3.4"/>
<rect x="215.1" y="214.8" class="st2" width="27.6" height="3.4"/>
<rect x="272.8" y="206.4" class="st2" width="13.7" height="3.4"/>
<rect x="292.4" y="206.4" class="st2" width="17" height="3.4"/>
<rect x="269.5" y="214.8" class="st2" width="30.6" height="3.4"/>
<rect x="248.8" y="214.8" class="st2" width="13" height="3.4"/>
<rect x="165.8" y="228.6" class="st0" width="17.5" height="3.4"/>
<rect x="165.8" y="236.9" class="st2" width="37.4" height="3.4"/>
<rect x="175.2" y="245.3" class="st0" width="30.6" height="3.4"/>
<rect x="175.2" y="253.7" class="st0" width="30.6" height="3.4"/>
<rect x="196.4" y="262.1" class="st0" width="29.8" height="3.4"/>
<rect x="194.2" y="228.6" class="st2" width="30.8" height="3.4"/>
<rect x="232.9" y="228.6" class="st2" width="15.5" height="3.4"/>
<rect x="258.5" y="228.6" class="st2" width="71.4" height="3.4"/>
<rect x="212" y="236.9" class="st0" width="31.2" height="3.4"/>
<rect x="215.1" y="245.3" class="st2" width="34.9" height="3.4"/>
<rect x="215.1" y="253.7" class="st2" width="23.8" height="3.4"/>
<rect x="258.5" y="245.3" class="st2" width="25.9" height="3.4"/>
<rect x="291.1" y="245.3" class="st2" width="15.8" height="3.4"/>
<rect x="314.6" y="245.3" class="st2" width="15.3" height="3.4"/>
<rect x="245.7" y="253.7" class="st2" width="45.4" height="3.4"/>
<rect x="296.9" y="253.7" class="st2" width="11.5" height="3.4"/>
<rect x="234.6" y="262.1" class="st2" width="22.1" height="3.4"/>
<path class="st0" d="M104.8,255.7l6.5,1.3l2.8-13.8l-6.5-1.3c0.1-5.4-0.9-10.7-3-15.7l5.6-3.7l-7.7-11.7l-5.6,3.7
	c-2.9-3.1-6.3-5.6-10.1-7.6c-1-0.5-2-1-3-1.4l-0.1-0.1l1.3-6.5l-13.8-2.8l-1.3,6.5c-5.4-0.1-10.7,0.9-15.7,3l-3.7-5.6l-11.7,7.7
	l3.7,5.6c-3.9,3.7-7,8.2-9,13.2l-6.5-1.3L24.2,239l6.5,1.4c-0.1,5.4,0.9,10.7,3,15.7l-5.6,3.6l7.7,11.7l5.6-3.7
	c3.7,3.9,8.2,7,13.2,9l-1.3,6.5l13.8,2.8l1.3-6.5c5.4,0.1,10.7-0.9,15.7-3l3.7,5.6l11.7-7.7l-3.7-5.6
	C99.7,265.2,102.8,260.7,104.8,255.7z M71.8,269.5c-2.8,0.3-5.6,0.1-8.3-0.5c-15.4-3.2-25.2-18.2-22.1-33.6
	c2.5-12.2,12.8-21.4,25.2-22.5c4.4-0.4,8.9,0.2,13,1.9c1,0.4,2,0.9,3,1.4c13.8,7.4,19,24.7,11.6,38.5
	C89.7,263,81.3,268.6,71.8,269.5L71.8,269.5z M69.3,270.5c-16.2,0-29.3-13.2-29.3-29.4c0-15.1,11.5-27.8,26.6-29.2
	c2.9-0.3,5.8-0.1,8.6,0.5c1.6,0.3,3.3,0.8,4.8,1.4c1.1,0.4,2.1,0.9,3.1,1.4c11.4,6.2,17.4,19.1,14.8,31.8
	c-2.6,12.7-13.2,22.2-26.1,23.3l0,0C71,270.5,70.1,270.5,69.3,270.5L69.3,270.5z M69.3,213.7c-0.8,0-1.7,0-2.5,0.1
	c-15.1,1.5-26.1,15-24.6,30.1c1.5,14.9,14.7,25.9,29.6,24.6l0,0c12.1-1,22-9.9,24.4-21.8c2.4-11.9-3.3-24-14-29.7
	c-0.9-0.5-1.9-1-2.9-1.4c-1.5-0.6-3-1-4.5-1.3C72.9,213.9,71,213.7,69.3,213.7L69.3,213.7z"/>
<path class="st1" d="M434,255.3l8.8-8.6l22.8,23.1c2.4,2.4,2.3,6.3-0.1,8.6l-0.1,0.1c-2.4,2.4-6.2,2.3-8.6-0.1c0,0,0,0,0,0
	L434,255.3z"/>
<path class="st1" d="M434,255.3l8.8-8.6l22.8,23.1c2.4,2.4,2.3,6.3-0.1,8.6l-0.1,0.1c-2.4,2.4-6.2,2.3-8.6-0.1c0,0,0,0,0,0
	L434,255.3z"/>
<path class="st0" d="M439.4,268l16.1-15.9l41.9,42.5c4.3,4.4,4.3,11.5-0.1,15.9l-0.2,0.2c-4.4,4.3-11.5,4.3-15.8-0.1c0,0,0,0,0,0
	L439.4,268z"/>
<path class="st2" d="M434,255.3l8.8-8.6l22.8,23.1c2.4,2.4,2.3,6.3-0.1,8.6l-0.1,0.1c-2.4,2.4-6.2,2.3-8.6-0.1c0,0,0,0,0,0
	L434,255.3z"/>
<path class="st0" d="M439.4,268l16.1-15.9l41.9,42.5c4.3,4.4,4.3,11.5-0.1,15.9l-0.2,0.2c-4.4,4.3-11.5,4.3-15.8-0.1c0,0,0,0,0,0
	L439.4,268z"/>
<path class="st0" d="M439.4,268l16.1-15.9l41.9,42.5c4.3,4.4,4.3,11.5-0.1,15.9l-0.2,0.2c-4.4,4.3-11.5,4.3-15.8-0.1c0,0,0,0,0,0
	L439.4,268z"/>
<path class="st0" d="M357.3,217.8c-0.1,25.4,19.1,46.7,44.4,49.2c1.3,0.1,2.7,0.2,4,0.2c6.6,0.1,13.2-1.2,19.3-3.7
	c1-0.4,2-0.9,2.9-1.4c2.7-1.4,5.3-3,7.7-4.8c1.7-1.3,3.3-2.7,4.8-4.2c1.5-1.4,2.8-3,4.1-4.6c15.2-19.3,13.7-46.9-3.5-64.4
	c-8.1-8.3-18.9-13.4-30.4-14.5c-1.3-0.1-2.7-0.2-4-0.2C379.6,169.1,357.6,190.8,357.3,217.8L357.3,217.8z M377.8,189.4
	c7.6-7.6,18-11.8,28.8-11.7c1.1,0,2.2,0.1,3.3,0.2c9.5,0.9,18.5,5.1,25.2,12c15.6,15.9,15.4,41.5-0.5,57.1c0,0,0,0,0,0l-0.7,0.7
	c-1.3,1.2-2.8,2.4-4.2,3.4c-7,5-15.3,7.6-23.8,7.5c-1.1,0-2.2-0.1-3.3-0.2c-22.2-2-38.6-21.7-36.6-43.9
	C366.8,205,371,196.1,377.8,189.4L377.8,189.4z M406.1,259.6h-0.3c-1.1,0-2.2-0.1-3.4-0.2c-11.6-1.1-22.1-7-29.1-16.2
	c-12.6-16.5-11-39.9,3.9-54.5l0,0c7.8-7.8,18.4-12.1,29.4-11.9c1.3,0,2.4,0.1,3.4,0.2c9.8,0.9,18.9,5.3,25.8,12.3
	c16,16.2,15.8,42.4-0.4,58.4c0,0,0,0,0,0l-0.7,0.7c-1.4,1.3-2.8,2.4-4.3,3.5C423.1,256.9,414.7,259.6,406.1,259.6L406.1,259.6z
	 M378.4,190.1c-15.5,15.4-15.6,40.4-0.3,55.9c6.5,6.6,15.2,10.7,24.4,11.5c1.1,0.1,2.1,0.1,3.2,0.2h0.3c8.2,0,16.3-2.6,23-7.4
	c1.4-1,2.8-2.1,4.1-3.4l0.7-0.7c15.5-15.4,15.6-40.4,0.3-55.9c-6.5-6.6-15.2-10.7-24.4-11.6c-0.9-0.1-2-0.1-3.3-0.2h-0.4
	C395.8,178.7,385.8,182.8,378.4,190.1L378.4,190.1z"/>
<path class="st0" d="M426.7,198h-41c-2.9,0-5.2,2.3-5.2,5.2v22.9c0,2.9,2.3,5.2,5.2,5.2c0,0,0,0,0,0h22v12.8l12.6-12.8h6.4
	c2.9,0,5.2-2.3,5.2-5.2c0,0,0,0,0,0v-22.9C431.9,200.3,429.6,198,426.7,198z"/>
<path class="st1" d="M396,220.6l-6-6c-0.3-0.3-0.3-0.9,0-1.2l5.8-5.8l1.2,1.2l-5.2,5.2l5.3,5.3L396,220.6z"/>
<path class="st1" d="M417,220.9l-1.2-1.2l5.5-5.5l-5.5-5.5l1.2-1.2l6.1,6.1c0.2,0.2,0.3,0.4,0.3,0.6c0,0.2-0.1,0.5-0.3,0.6
	L417,220.9z"/>
<rect x="395.4" y="213.2" transform="matrix(0.4066 -0.9136 0.9136 0.4066 45.8908 498.8659)" class="st1" width="23.1" height="1.7"/>
<path class="st0" d="M43.3,55.5c-3.9,0-7.6-1.4-10.5-4c-3.9-3.5-9.8-3.5-13.7,0c-1.1,1-2.8,0.9-3.8-0.1c-1-1.1-0.9-2.8,0.1-3.8
	c6-5.4,15-5.4,21,0c3.9,3.5,9.8,3.5,13.7,0c6-5.4,15-5.4,21,0c3.9,3.5,9.8,3.5,13.7,0c6-5.4,15-5.4,21,0c1.1,1,1.2,2.7,0.1,3.8
	c-1,1-2.7,1.1-3.8,0.1c-3.9-3.5-9.8-3.5-13.7,0c-6,5.4-15,5.4-21,0c-3.9-3.5-9.8-3.5-13.7,0C50.9,54.1,47.2,55.5,43.3,55.5z
	 M26,46.9c3,0,5.9,1.1,8.1,3.1c5.2,4.7,13.2,4.7,18.4,0c4.6-4.2,11.6-4.2,16.3,0c5.2,4.7,13.2,4.7,18.4,0c4.6-4.2,11.6-4.2,16.3,0
	c0.3,0.3,0.8,0.3,1.1,0c0.3-0.3,0.3-0.8-0.1-1.1c-5.2-4.7-13.2-4.7-18.4,0c-4.6,4.2-11.6,4.2-16.3,0c-5.2-4.7-13.2-4.7-18.4,0
	c-4.6,4.2-11.6,4.2-16.3,0c-5.2-4.7-13.2-4.7-18.4,0c-0.3,0.3-0.3,0.8,0,1.1c0.3,0.3,0.8,0.3,1.1,0C20.1,48,23,46.9,26,46.9z"/>
<path class="st0" d="M399.5,72.8c-3.9,0-7.6-1.4-10.5-4c-3.9-3.5-9.8-3.5-13.7,0c-1.1,1-2.8,0.9-3.8-0.1c-1-1.1-1-2.8,0.1-3.8
	c0,0,0,0,0,0c6-5.4,15-5.4,21,0c3.9,3.5,9.8,3.5,13.7,0c6-5.4,15-5.4,21,0c3.9,3.5,9.8,3.5,13.7,0c6-5.4,15-5.4,21,0
	c1.1,1,1.2,2.7,0.1,3.8c-1,1.1-2.7,1.1-3.8,0.1c-3.9-3.5-9.8-3.5-13.7,0c-6,5.4-15,5.4-21,0c-3.9-3.5-9.8-3.5-13.7,0
	C407.1,71.5,403.4,72.9,399.5,72.8z M382.2,64.3c3,0,5.9,1.1,8.1,3.1c5.2,4.7,13.2,4.7,18.4,0c4.6-4.2,11.6-4.2,16.3,0
	c5.2,4.7,13.2,4.7,18.4,0c4.6-4.2,11.6-4.2,16.3,0c0.3,0.3,0.8,0.3,1.1,0c0.3-0.3,0.3-0.8,0-1.1c0,0,0,0,0,0
	c-5.2-4.7-13.2-4.7-18.4,0c-4.6,4.2-11.6,4.2-16.3,0c-5.2-4.7-13.2-4.7-18.4,0c-4.6,4.2-11.6,4.2-16.3,0c-5.2-4.7-13.2-4.7-18.4,0
	c-0.3,0.3-0.3,0.8,0,1.1c0.3,0.3,0.8,0.3,1.1,0C376.3,65.4,379.2,64.3,382.2,64.3z"/>
<rect x="126.1" y="24.3" class="st0" width="38" height="1.9"/>
<rect x="431.1" y="105.9" class="st0" width="21.3" height="1.9"/>
<rect x="58.4" y="72.5" class="st0" width="21.3" height="1.9"/>
<rect x="395.5" y="51.3" class="st0" width="9.6" height="1.9"/>
<path class="st0" d="M473.8,189.7c-1.8,0-3.3-1.5-3.3-3.3c0-1.8,1.5-3.3,3.3-3.3c1.8,0,3.3,1.5,3.3,3.3S475.6,189.7,473.8,189.7
	L473.8,189.7z M473.8,185.1c-0.8,0-1.4,0.6-1.4,1.4s0.6,1.4,1.4,1.4c0.8,0,1.4-0.6,1.4-1.4v0C475.1,185.7,474.5,185.1,473.8,185.1z"
	/>
<path class="st0" d="M360.6,52.3c-1.8,0-3.3-1.5-3.3-3.3c0-1.8,1.5-3.3,3.3-3.3c1.8,0,3.3,1.5,3.3,3.3
	C363.9,50.9,362.4,52.3,360.6,52.3L360.6,52.3z M360.6,47.7c-0.8,0-1.3,0.6-1.3,1.4s0.6,1.3,1.4,1.3c0.7,0,1.3-0.6,1.3-1.4
	C362,48.3,361.4,47.7,360.6,47.7C360.6,47.7,360.6,47.7,360.6,47.7z"/>
<path class="st0" d="M61.8,33.6c-1.8,0-3.3-1.4-3.3-3.2c0-1.8,1.4-3.3,3.2-3.3s3.3,1.4,3.3,3.2c0,0,0,0,0,0
	C65,32.2,63.6,33.6,61.8,33.6z M61.8,29c-0.8,0-1.4,0.6-1.4,1.4s0.6,1.4,1.4,1.4c0.8,0,1.4-0.6,1.4-1.4C63.1,29.6,62.5,29,61.8,29
	C61.8,29,61.8,29,61.8,29L61.8,29z"/>
<path class="st0" d="M37.8,87.4c-1.8,0-3.3-1.5-3.3-3.3c0-1.8,1.5-3.3,3.3-3.3c1.8,0,3.3,1.5,3.3,3.3S39.6,87.4,37.8,87.4L37.8,87.4
	z M37.8,82.7c-0.8,0-1.4,0.6-1.4,1.4s0.6,1.4,1.4,1.4s1.4-0.6,1.4-1.4C39.2,83.4,38.6,82.8,37.8,82.7C37.9,82.7,37.8,82.7,37.8,82.7
	z"/>
<rect x="94.8" y="27" transform="matrix(0.7072 -0.707 0.707 0.7072 8.7709 77.1336)" class="st0" width="5.4" height="1.9"/>
<rect x="96.6" y="25.3" transform="matrix(0.7072 -0.707 0.707 0.7072 8.7688 77.1345)" class="st0" width="1.9" height="5.4"/>
<rect x="459" y="157.2" class="st0" width="21.3" height="1.9"/>
<rect x="432.1" y="93.4" transform="matrix(0.7075 -0.7067 0.7067 0.7075 60.4862 334.8683)" class="st4" width="5.4" height="1.9"/>
<rect x="433.8" y="91.7" transform="matrix(0.7072 -0.707 0.707 0.7072 60.5724 335.0031)" class="st0" width="1.9" height="5.4"/>
<rect x="436.5" y="166.5" class="st0" width="38" height="1.9"/>
<rect x="360.6" y="89.9" class="st0" width="38" height="1.9"/>
<rect x="296.6" y="28" class="st0" width="27.6" height="1.9"/>
<rect x="286.2" y="28" class="st0" width="7.5" height="1.9"/>
<rect x="133" y="2.1" class="st0" width="21.3" height="1.9"/>
<rect x="331.8" y="7.4" class="st0" width="9.6" height="1.9"/>
<path class="st0" d="M455.2,87.4c-1.8,0-3.3-1.5-3.3-3.3c0-1.8,1.5-3.3,3.3-3.3c1.8,0,3.3,1.5,3.3,3.3
	C458.5,85.9,457,87.4,455.2,87.4z M455.2,82.7c-0.8,0-1.4,0.6-1.4,1.4s0.6,1.4,1.4,1.4s1.4-0.6,1.4-1.4c0,0,0,0,0,0
	C456.6,83.4,456,82.7,455.2,82.7z"/>
<path class="st0" d="M134.3,45.3c-1.8,0-3.3-1.5-3.3-3.3s1.5-3.3,3.3-3.3s3.3,1.5,3.3,3.3c0,0,0,0,0,0
	C137.6,43.9,136.1,45.3,134.3,45.3z M134.3,40.7c-0.8,0-1.4,0.6-1.4,1.4c0,0.8,0.6,1.4,1.4,1.4c0.8,0,1.4-0.6,1.4-1.4c0,0,0,0,0,0
	C135.7,41.3,135.1,40.7,134.3,40.7C134.3,40.7,134.3,40.7,134.3,40.7z"/>
<rect x="45.9" y="102.8" transform="matrix(0.7069 -0.7074 0.7074 0.7069 -59.1217 64.8002)" class="st4" width="5.4" height="1.9"/>
<rect x="45.9" y="102.8" transform="matrix(0.7069 -0.7074 0.7074 0.7069 -59.1217 64.8002)" class="st4" width="5.4" height="1.9"/>
<rect x="47.7" y="101" transform="matrix(0.7071 -0.7071 0.7071 0.7071 -59.0974 64.7635)" class="st0" width="1.9" height="5.4"/>
<rect x="99.6" y="1.6" transform="matrix(0.7072 -0.707 0.707 0.7072 28.1243 73.0636)" class="st0" width="5.4" height="1.9"/>
<rect x="99.6" y="1.6" transform="matrix(0.7072 -0.707 0.707 0.7072 28.1243 73.0636)" class="st0" width="5.4" height="1.9"/>
<rect x="101.3" y="-0.1" transform="matrix(0.7072 -0.707 0.707 0.7072 28.1172 73.0666)" class="st0" width="1.9" height="5.4"/>
<rect x="194.6" y="24.3" class="st0" width="27.6" height="1.9"/>
<rect x="184.2" y="24.3" class="st0" width="7.5" height="1.9"/>
<rect x="40.7" y="120.1" class="st0" width="27.6" height="1.9"/>
<rect x="30.3" y="120.1" class="st0" width="7.5" height="1.9"/>
<rect x="111.6" y="59.7" class="st0" width="21.3" height="1.9"/>
<rect x="55.3" y="15.1" class="st0" width="27.6" height="1.9"/>
<rect x="44.8" y="15.1" class="st0" width="7.5" height="1.9"/>
<rect x="179.9" y="5.7" transform="matrix(0.707 -0.7072 0.7072 0.707 48.7599 131.0774)" class="st0" width="5.4" height="1.9"/>
<rect x="179.9" y="5.7" transform="matrix(0.707 -0.7072 0.7072 0.707 48.7599 131.0774)" class="st0" width="5.4" height="1.9"/>
<rect x="181.6" y="4" transform="matrix(0.7071 -0.7071 0.7071 0.7071 48.7405 131.0462)" class="st0" width="1.9" height="5.4"/>
<rect x="251.4" y="26.8" transform="matrix(0.7066 -0.7076 0.7076 0.7066 54.8658 187.9229)" class="st0" width="5.4" height="1.9"/>
<rect x="251.4" y="26.8" transform="matrix(0.7066 -0.7076 0.7076 0.7066 54.8658 187.9229)" class="st0" width="5.4" height="1.9"/>
<rect x="253.1" y="25.1" transform="matrix(0.7071 -0.7071 0.7071 0.7071 54.7634 187.7648)" class="st0" width="1.9" height="5.4"/>
<rect x="224.4" y="14.2" class="st0" width="27.6" height="1.9"/>
<rect x="214" y="14.2" class="st0" width="7.5" height="1.9"/>
<rect x="343.2" y="23.3" transform="matrix(0.7072 -0.707 0.707 0.7072 84.1412 251.6462)" class="st0" width="5.4" height="1.9"/>
<rect x="343.2" y="23.3" transform="matrix(0.7072 -0.707 0.707 0.7072 84.1412 251.6462)" class="st0" width="5.4" height="1.9"/>
<rect x="344.9" y="21.5" transform="matrix(0.7071 -0.7071 0.7071 0.7071 84.175 251.6804)" class="st0" width="1.9" height="5.4"/>
<rect x="471.8" y="137.8" transform="matrix(0.7072 -0.707 0.707 0.7072 40.8318 376.1018)" class="st4" width="5.4" height="1.9"/>
<rect x="473.6" y="136" transform="matrix(0.7071 -0.7071 0.7071 0.7071 40.888 376.1618)" class="st0" width="1.9" height="5.4"/>
</svg>
