<svg xmlns="http://www.w3.org/2000/svg" viewBox="0 0 288 288"><defs><style>.cls-1{fill:#fff;opacity:0;}.cls-2{fill:#1694d2;}</style></defs><title>Asset 10</title><g id="Layer_2" data-name="Layer 2"><g id="Capa_1" data-name="Capa 1"><rect class="cls-1" width="288" height="288"/><path class="cls-2" d="M204.38,155.8c2.52.5,5.09.66,7.59,1.29,12.2,3.07,22,9.42,28.38,20.55,3.69,6.47,4.85,13.5,4.46,20.87-.27,5-1.2,9.9-1.45,14.89a20.45,20.45,0,0,0,.2,4.75,8.09,8.09,0,0,0,2.64,4.74c1.13,1,1.28,2.06.5,2.9s-1.72.76-2.85-.18c-3-2.47-3.94-5.83-4.08-9.52-.18-4.67.62-9.26,1.18-13.86,1.47-12.07-1.25-22.72-10.3-31.29a41.22,41.22,0,0,0-20.56-10.59c-11-2.23-21.46-.76-31.1,5.25a41.49,41.49,0,0,0-13.13,13.62c-1.06,1.72-2.19,3.4-3.35,5-.81,1.15-1.86,1.36-2.75.68s-.88-1.67-.09-2.84c1.81-2.66,3.5-5.41,5.39-8,7.77-10.75,18.3-16.74,31.49-18.07.3,0,.62,0,.86-.21Z"/><path class="cls-2" d="M217.11,200.74c.09,3.52-1.34,6.62-2.79,9.68-5.9,12.47-15.26,21.69-27.09,28.53a86.61,86.61,0,0,1-25.13,9.6c-1.4.3-2.26-.13-2.54-1.22s.34-1.89,1.74-2.21a84.14,84.14,0,0,0,28.22-11.79c10.46-7,18.4-16.08,23.06-27.86A12.16,12.16,0,0,0,208.72,191a12.58,12.58,0,0,0-15.12-.37,10.88,10.88,0,0,0-3.79,4.64c-4.54,11.58-13.59,18.23-24.66,22.67a61.23,61.23,0,0,1-7.48,2.36,2.19,2.19,0,0,1-2.2-.3,1.76,1.76,0,0,1,.94-3,70.5,70.5,0,0,0,8.55-2.78c6.74-2.79,12.7-6.65,17.23-12.49a33.08,33.08,0,0,0,4.1-7.26,15.58,15.58,0,0,1,16.19-9.64c7.61,1,13.39,6.4,14.49,13.63C217.08,199.18,217.06,200,217.11,200.74Z"/><path class="cls-2" d="M201.12,173.51c-10.55.45-18.62,5-23.82,14.39-.65,1.16-1.3,2.32-1.9,3.51-3.41,6.71-9,10.7-16.1,12.66-.54.15-1.07.3-1.62.42a1.78,1.78,0,1,1-1-3.43c.86-.28,1.73-.5,2.6-.75a20.49,20.49,0,0,0,13.08-10.86c2.13-4.13,4.46-8.11,7.92-11.36,13.69-12.87,37.1-10,46.75,5.79,3.27,5.36,4,11.24,3.53,17.37-.37,4.68-1.36,9.27-1.81,13.94a26.38,26.38,0,0,0,.26,8.22c1,4.47,3.71,7.65,7.38,10.16a40.16,40.16,0,0,0,6.7,3.56,4.86,4.86,0,0,1,1.14.57,1.7,1.7,0,0,1,.48,2.2,1.47,1.47,0,0,1-1.93.87c-7.74-3.11-14.67-7.13-17.08-16-1.07-3.89-.79-7.84-.31-11.78.61-5,1.69-9.92,1.72-15,.06-10.06-4.76-17.05-13.45-21.59A26.67,26.67,0,0,0,201.12,173.51Z"/><path class="cls-2" d="M201.63,162.6c9.15.35,16.6,2.66,23.05,7.69,9.83,7.67,13.91,17.89,13.16,30.22-.33,5.32-1.51,10.56-1.71,15.89a18.48,18.48,0,0,0,.39,5.14c1,4.05,3.72,6.55,7.26,8.37a12.75,12.75,0,0,1,1.61.81,1.67,1.67,0,0,1,.62,2.35,1.56,1.56,0,0,1-2.2.74c-7.48-3.31-11.12-8.07-11.27-15.83a78.68,78.68,0,0,1,1.17-12.06c.8-6.09,1.19-12.19-.81-18.13-3.4-10.16-10.43-16.8-20.56-19.87-13.48-4.07-25.45-1.07-35.66,8.68a31,31,0,0,0-5,6.83c-1.19,2-2.33,4-3.71,5.89A19.84,19.84,0,0,1,159.3,196a1.87,1.87,0,0,1-2.63-.77,1.82,1.82,0,0,1,1.19-2.49,17.77,17.77,0,0,0,8.61-7.65c1.13-1.87,2.21-3.78,3.41-5.61,5.81-8.91,14.15-14.05,24.44-16.21A36.07,36.07,0,0,1,201.63,162.6Z"/><path class="cls-2" d="M223.83,199.82c0,5.09-1,9.51-1.77,14a36.07,36.07,0,0,0-.54,9.89c.58,5.06,3.14,9,6.93,12.26a50.83,50.83,0,0,0,13.42,7.82c1,.43,1.72,1,1.38,2.24a1.81,1.81,0,0,1-2.49,1.18c-6.76-2.86-13.23-6.21-18-12-4.25-5.11-5.4-11.08-4.77-17.54.45-4.53,1.53-9,2.08-13.5.88-7.16-.41-13.66-6.11-18.63a19.5,19.5,0,0,0-25.8.46,31.52,31.52,0,0,0-6.91,9.85,25.84,25.84,0,0,1-13.15,12.7,59.88,59.88,0,0,1-7,2.58c-1.27.37-2.55.76-3.84,1.06a1.67,1.67,0,0,1-2.27-1.28,1.7,1.7,0,0,1,1.37-2.13c3.17-.93,6.34-1.85,9.4-3.09a22.63,22.63,0,0,0,12.34-11.49c2-4.14,4.3-8,7.88-11,7-5.83,14.91-7.56,23.48-4.4s13,9.52,14.27,18.31A25.32,25.32,0,0,1,223.83,199.82Z"/><path class="cls-2" d="M210,200.58a11.78,11.78,0,0,1-1.07,4.48c-5,12-13.59,20.84-24.67,27.39a80.2,80.2,0,0,1-23.92,9.21c-1.43.31-2.4-.16-2.63-1.3s.49-1.86,1.85-2.17c10.68-2.41,20.61-6.49,29.36-13.19a51.35,51.35,0,0,0,17-22.09,5.19,5.19,0,0,0-2.88-7,5,5,0,0,0-6.93,2.78c-4.44,10.94-12.58,18.25-22.86,23.48A67,67,0,0,1,158,227.56c-1,.23-1.9.22-2.44-.85a1.67,1.67,0,0,1,.39-2.11,3.34,3.34,0,0,1,1.67-.62,60.26,60.26,0,0,0,19.91-8.44c6.86-4.63,12.19-10.53,15.3-18.32a8.46,8.46,0,0,1,9.74-5.21A9,9,0,0,1,210,200.58Z"/><path class="cls-2" d="M241.19,251.93a1.78,1.78,0,0,1-2.43,1.7c-8.61-3.53-16.81-7.69-22.69-15.28a30.23,30.23,0,0,1-4.2-7.79c-.57-1.49-1-1.63-2-.53-12.57,12.9-28.16,20.39-45.21,25.27-1.4.4-2.31,0-2.62-1s.2-2,1.65-2.4c10.88-3.17,21.3-7.38,30.79-13.69a79.4,79.4,0,0,0,12.49-10.35,21.53,21.53,0,0,1,3-2.69c1.79-1.23,3.41-.77,4.26,1.24.42,1,.74,2,1.1,3,2.23,6.1,6.41,10.59,11.69,14.17a67,67,0,0,0,12.67,6.55C240.76,250.58,241.19,251.1,241.19,251.93Z"/><path class="cls-2" d="M238.56,258.24a1.78,1.78,0,0,1-2.65,1.61,97.34,97.34,0,0,1-9.61-4.33C219.84,252.14,214,248,209.66,242c-.89-1.24-1.6-1.24-3,0a72.14,72.14,0,0,1-10.56,7.58c-9.09,5.31-18.87,9-28.89,12a1.83,1.83,0,0,1-2.49-1.15c-.3-1,.33-1.93,1.66-2.33a155.24,155.24,0,0,0,19.49-7.28,75.51,75.51,0,0,0,18.48-11.59,17,17,0,0,1,2.38-1.76c1.87-1.14,3-1,4.43.62a7.77,7.77,0,0,1,.83,1c4.1,6,9.78,10,16.11,13.34,2.93,1.52,6,2.84,9,4.06A1.92,1.92,0,0,1,238.56,258.24Z"/><path class="cls-2" d="M235.37,264.33c0,1.4-1.16,2.15-2.62,1.59-2.69-1-5.31-2.18-7.91-3.43a61.28,61.28,0,0,1-15.94-10.55c-1.43-1.35-2-1.45-3.61-.29-10.49,7.46-22.36,11.92-34.46,15.88a2.09,2.09,0,0,1-2.08,0,1.7,1.7,0,0,1-.76-1.68,2,2,0,0,1,1.49-1.59c3.45-1.17,6.91-2.32,10.32-3.58A100.82,100.82,0,0,0,203,248.85c3.75-2.64,5.05-2.55,8.35.53,6.47,6,14.24,9.81,22.31,13.1C235,263,235.35,263.41,235.37,264.33Z"/><path class="cls-2" d="M206.43,256a7.27,7.27,0,0,1,3.92,1.6,89.35,89.35,0,0,0,13.47,8c2.06,1,4.15,1.85,6.23,2.75,1.33.58,1.83,1.41,1.44,2.46s-1.51,1.39-2.82.86a91.1,91.1,0,0,1-19.2-10.38c-.42-.3-.86-.57-1.26-.89a2.7,2.7,0,0,0-3.53-.11c-9.19,5.86-19.25,9.75-29.55,13.1l-.24.1c-1.36.41-2.28.07-2.66-1s.19-1.91,1.52-2.38c3.11-1.1,6.24-2.16,9.33-3.3a103.1,103.1,0,0,0,18.78-9A10,10,0,0,1,206.43,256Z"/><path class="cls-2" d="M202.83,200.94c-.13.34-.27.74-.43,1.13-4.24,10.35-11.55,18-21,23.74a73.16,73.16,0,0,1-22.53,8.86c-1.38.3-2.3-.15-2.55-1.23s.36-1.92,1.73-2.23A67.78,67.78,0,0,0,182,221.13c7.67-5.29,13.7-12,17.21-20.72a1.79,1.79,0,0,1,2.18-1.34A1.91,1.91,0,0,1,202.83,200.94Z"/><path class="cls-2" d="M206,264.55a6.39,6.39,0,0,1,2.92.92,177.71,177.71,0,0,0,17,8.61,1.66,1.66,0,0,1,1,2.31,1.78,1.78,0,0,1-2.59.86,123.65,123.65,0,0,1-13.61-6.72c-.78-.44-1.6-.83-2.34-1.35a4.29,4.29,0,0,0-5-.12A104.8,104.8,0,0,1,189,275.51c-3.09,1.16-6.22,2.23-9.34,3.31-1.33.47-2.34.07-2.67-.95s.21-2,1.53-2.42a154.18,154.18,0,0,0,23.75-9.81A8.08,8.08,0,0,1,206,264.55Z"/><path class="cls-2" d="M205.64,272.36a7.33,7.33,0,0,1,3.09.86c3.86,1.95,7.7,3.95,11.64,5.73,1.17.53,1.54,1.41,1.1,2.35a1.87,1.87,0,0,1-2.62.84A101.58,101.58,0,0,1,208.49,277a5.56,5.56,0,0,0-5.69-.16,153,153,0,0,1-16.55,6.68c-.24.08-.48.18-.73.25a1.74,1.74,0,0,1-2.34-1,1.71,1.71,0,0,1,1.14-2.36c2.56-1,5.17-1.82,7.71-2.85,3.5-1.4,6.95-2.92,10.41-4.39A10.05,10.05,0,0,1,205.64,272.36Z"/><path class="cls-2" d="M214.21,284.91a1.68,1.68,0,0,1-2.42,1.58c-1.45-.64-2.88-1.34-4.27-2.08a4.51,4.51,0,0,0-4.08-.12q-4.4,1.8-8.84,3.52a1.68,1.68,0,0,1-2.42-.92,1.75,1.75,0,0,1,1.13-2.38c3.22-1.29,6.45-2.54,9.69-3.79a6.53,6.53,0,0,1,5.48.23q2.25,1.11,4.52,2.17A1.82,1.82,0,0,1,214.21,284.91Z"/><path class="cls-2" d="M228.3,29.78H201V16.35a16.36,16.36,0,0,0-32.71,0V29.78H117.18V16.35a16.36,16.36,0,0,0-32.71,0V29.78H59.71A23.54,23.54,0,0,0,36.16,53.32V210.23a23.55,23.55,0,0,0,23.55,23.55h87.64V217.63H68.59a12.48,12.48,0,0,1-12.48-12.48V106.67A12.48,12.48,0,0,1,68.59,94.19H222.85a12.48,12.48,0,0,1,12.48,12.48v49.24h16.51V53.32A23.53,23.53,0,0,0,228.3,29.78Z"/><rect class="cls-2" x="71.02" y="107.21" width="26.66" height="16.33" rx="4.37"/><rect class="cls-2" x="110.81" y="107.21" width="26.66" height="16.33" rx="4.37"/><rect class="cls-2" x="148.37" y="107.21" width="26.66" height="16.33" rx="4.37"/><rect class="cls-2" x="187.3" y="107.21" width="26.66" height="16.33" rx="4.37"/><rect class="cls-2" x="71.02" y="135.68" width="26.66" height="16.33" rx="4.37"/><rect class="cls-2" x="110.81" y="135.68" width="26.66" height="16.33" rx="4.37"/><rect class="cls-2" x="71.02" y="164.16" width="26.66" height="16.33" rx="4.37"/><rect class="cls-2" x="110.81" y="164.16" width="26.66" height="16.33" rx="4.37"/><rect class="cls-2" x="71.02" y="192.63" width="26.66" height="16.33" rx="4.37"/><rect class="cls-2" x="110.81" y="192.63" width="26.66" height="16.33" rx="4.37"/><rect class="cls-2" x="148.37" y="135.68" width="26.66" height="16.33" rx="4.37"/><rect class="cls-2" x="187.3" y="135.68" width="26.66" height="16.33" rx="4.37"/></g></g></svg>