<svg xmlns="http://www.w3.org/2000/svg" viewBox="0 0 289.74 288"><defs><style>.cls-1{fill:#fff;opacity:0;}.cls-2{fill:#1694d2;}</style></defs><title>Asset 11</title><g id="Layer_2" data-name="Layer 2"><g id="Capa_1" data-name="Capa 1"><rect class="cls-1" x="0.87" width="288" height="288"/><path class="cls-2" d="M102.52,230.39c10,1.25,19.81,2.46,29.62,3.74a8.79,8.79,0,0,0,4.69-1c14.63-6.29,29-13.17,43.45-19.84,7.61-3.51,15.22-7,23-10.25,8.27-3.45,16.92,3.54,16.25,12.1a11.31,11.31,0,0,1-6.1,9.46c-4.38,2.44-8.95,4.5-13.54,6.5-2,.87-2.89,1.85-2.5,4.13a12.16,12.16,0,0,1-1,6.73,10.52,10.52,0,0,1-5.56,5.88c-14.92,6.67-30,12.94-45.12,19.17-7.3,3-14.7,5.79-22,8.85a20,20,0,0,1-14.8.33c-12-4.06-23.33-9.5-34.74-14.86-8.35-3.92-16.68-7.9-25.51-10.69a1.69,1.69,0,0,1-1.4-1.91q0-25.15-.19-50.32c0-1.52.22-2,2-1.78,13.91,2,27.86,3.67,41.75,5.77,6.44,1,12.74.39,19.09-.32q13.39-1.5,26.8-2.92c1.38-.14,2.77-.2,4.15-.21a11.38,11.38,0,0,1,11.46,8.86,16.44,16.44,0,0,1,.31,7.35c-1.14,5.66-4.67,9.05-10.35,9.78-12.68,1.63-25.37,3.18-38,4.77C103.7,229.77,103.11,229.61,102.52,230.39Z"/><path class="cls-2" d="M205,31.32c12.25,0,24.51,0,36.76,0,1.28,0,1.6.36,1.59,1.61q-.06,23.55,0,47.08c0,1.4-.41,1.69-1.73,1.68-8.63,0-17.26,0-25.89,0a4.74,4.74,0,0,0-3.15,1c-6.7,5.23-13.58,10.23-20.05,15.77-4.11,3.52-7.21,8-10.84,11.89-2.67,2.9-5.78,4.9-9.84,5.13a12.41,12.41,0,0,1-11.6-5.71,11.63,11.63,0,0,1-.75-12.51c4.82-9.64,10.95-18.17,20-24.33a13.67,13.67,0,0,0,1.65-1.41c.55-.52,1.29-1,.51-1.93a1.44,1.44,0,0,0-2.3-.3C172.91,74,166.61,79,162.47,86.1c-1.36,2.34-3,4.54-4.41,6.85a1.67,1.67,0,0,1-2.26.77q-22.63-7-45.29-14c-.68-.21-1.17-.38-1.08-1.31.95-9.17,4-17.36,10.9-23.79a36.45,36.45,0,0,1,8.76-6q16.47-8.15,33.43-15.22A27.06,27.06,0,0,1,173,31.68c10.69-.07,21.37,0,32.05,0Z"/><path class="cls-2" d="M86.92,76.58c.83.21,2,.46,3.16.8,21.17,6.25,42.17,13.05,63.26,19.54a1.71,1.71,0,0,1,1.46,2c-.09,1.5.1,3,0,4.52-.73,9.22,8.58,15.35,15.38,15.49,7.06.15,12.19-3.18,16.36-8.45,1.92-2.42,1.88-2.46,4.9-1.64a26.94,26.94,0,0,1,6.43,2.4c2.67,1.53,3.5,3.4,2.65,6.35-4.16,14.43-8.66,28.75-13.24,43a10.79,10.79,0,0,1-2.16,3.94,4.47,4.47,0,0,1-5,1.46C145.52,155.54,111,145,76.65,133.75a43.41,43.41,0,0,1-7-2.85c-2.35-1.27-2.93-2.45-2.27-5C70.08,115,73.62,104.33,77,93.64c1.4-4.43,2.85-8.84,4.32-13.24A5.82,5.82,0,0,1,86.92,76.58Zm67.86,45c1.42-11.94-10.14-21.61-21-21.5-12,.12-20.91,10.77-21.06,21.3-.16,11,10.24,22.37,21.11,21C143.84,143.9,156.27,133.14,154.78,121.57ZM183,133.9a9.59,9.59,0,0,0-9.64-10,9.75,9.75,0,0,0-10.08,9.82,10,10,0,0,0,10,10A9.78,9.78,0,0,0,183,133.9Zm-88.6-15a9.76,9.76,0,0,0,10.2-9.9,9.9,9.9,0,0,0-10-9.79c-4.68.08-9.86,3.43-9.86,9.89A9.59,9.59,0,0,0,94.36,118.93Z"/><path class="cls-2" d="M289.74,57.9V98.26c0,2.32-3.1,5.41-5.43,5.41H266a5.55,5.55,0,0,1-5.55-4.1,11.44,11.44,0,0,1-.49-3.39c-.29-25.1-.15-50.19.2-75.28,0-1.26.13-2.53.25-3.79a4.87,4.87,0,0,1,4.66-4.67c6.87-.39,13.75,0,20.62,0,1.37,0,4,3.39,4,5Z"/><path class="cls-2" d="M29.46,221.69q0,19.92,0,39.83a5.73,5.73,0,0,1-1.21,4.05,5.4,5.4,0,0,1-4.65,2.1c-5.85-.19-11.71.08-17.55-.27C1.81,267.15.57,266,.47,261.73c-.59-24.56-.59-49.12-.2-73.68,0-2.05.08-4.11.16-6.16a5.41,5.41,0,0,1,5.22-5.59c2.21-.21,4.46-.17,6.69-.16,4,0,8.08.09,12.13.15,2.39,0,5.13,2.83,5.13,5.2v40.2Z"/><path class="cls-2" d="M33.41,222.16c0-11.58,0-23.16,0-34.74,0-1.42.36-1.88,1.8-1.79,2.55.16,5.24-.39,7.16,2.06a2.89,2.89,0,0,1,.74,1.93c-.12,20.14.22,40.28-.21,60.42a26.32,26.32,0,0,1-.62,5.93,2.8,2.8,0,0,1-2.94,2.39,34.72,34.72,0,0,0-4.33.27c-1.32.18-1.59-.29-1.59-1.55C33.43,245.44,33.41,233.8,33.41,222.16Z"/><path class="cls-2" d="M256.36,58.19c0,11.58,0,23.16,0,34.74,0,1.31-.26,1.82-1.67,1.74a16.61,16.61,0,0,1-5.51-.84A3.23,3.23,0,0,1,247,90.54c-.25-17.12-.24-34.25-.24-51.38,0-4.4,0-8.8,0-13.21a4.16,4.16,0,0,1,3.32-4.07,5.51,5.51,0,0,1,.71-.08c5.59-.44,5.59-.44,5.59,5.09Z"/></g></g></svg>