<svg xmlns="http://www.w3.org/2000/svg" viewBox="0 0 288 288"><defs><style>.cls-1{fill:#fff;opacity:0;}.cls-2{fill:#1694d2;}</style></defs><title>Asset 9</title><g id="Layer_2" data-name="Layer 2"><g id="Capa_1" data-name="Capa 1"><rect class="cls-1" width="288" height="288"/><path class="cls-2" d="M125.33,18.13C156,18,177.93,34.62,183.67,58.67c3.21,13.44,1.27,26.21-6.32,38-6.67,10.34-14.84,19.55-22,29.49a141.22,141.22,0,0,0-21.71,44.29c-.19.64-.37,1.28-.58,1.9a2.5,2.5,0,0,1-4.94-.27c-.63-3-1.16-6-1.88-8.92-4-16.46-12.63-30.41-23.52-43.15-5.94-6.94-12.11-13.69-17.36-21.2-11.42-16.34-12.56-33.75-3.7-51.22C91.61,27.87,108.8,18.94,125.33,18.13Zm31.35,50.34a26.09,26.09,0,1,0-26.05,26.18A26.11,26.11,0,0,0,156.68,68.47Z"/><path class="cls-2" d="M144.59,170.59c8,.56,15.47,1.07,23,1.61L212,175.4c7.78.56,15.56,1.08,23.34,1.73,2,.17,2.88-.4,3.68-2.38A24.33,24.33,0,0,1,268,160.6c11.5,3.19,19.44,15.19,17.61,26.65-2,12.73-12.49,21.65-25,21.28A24.09,24.09,0,0,1,237.88,190c-.58-2.57-1.6-3.44-4.17-3.61-19.84-1.3-39.67-2.73-59.51-4.15-9.2-.66-18.4-1.41-27.61-2.06-1.51-.11-2.2-.3-1.66-2.14A13.12,13.12,0,0,0,144.59,170.59Z"/><path class="cls-2" d="M116,172c0,2.81-.27,5.57.74,8.2.64,1.67-.79,1.34-1.59,1.52l-34.71,8c-9.81,2.25-19.6,4.55-29.43,6.71-1.56.34-2.2.8-2.34,2.49C47.46,212.78,36,222.23,21.68,221.13,9,220.16-.95,208,.07,194.83a24.4,24.4,0,0,1,26.3-22.24,23.44,23.44,0,0,1,19.57,12.95c.91,1.71,1.74,2,3.52,1.54q32.6-7.56,65.24-15C115.07,172.05,115.45,172,116,172Z"/><path class="cls-2" d="M132.93,189.75a16.87,16.87,0,0,0,7.44-3.63c1.51-1.36,1.76.35,2.22,1,5.54,7.73,11,15.5,16.52,23.26,6.37,9,12.78,18,19.1,27,.93,1.33,1.67,1.53,3.25,1,14-4.45,27.89,3.23,31.51,17.32,3.44,13.34-5.3,26.83-19.25,29.71-9.49,2-19.79-2.55-25.09-11a24.12,24.12,0,0,1,1.52-28c1.27-1.59,1.23-2.48.11-4.06q-17.81-25-35.47-50Z"/></g></g></svg>