<?xml version="1.0" encoding="utf-8"?>
<!-- Generator: Adobe Illustrator 23.0.3, SVG Export Plug-In . SVG Version: 6.00 Build 0)  -->
<svg version="1.1" id="Layer_1" xmlns="http://www.w3.org/2000/svg" xmlns:xlink="http://www.w3.org/1999/xlink" x="0px" y="0px"
	 viewBox="0 0 266 231" style="enable-background:new 0 0 266 231;" xml:space="preserve">
<style type="text/css">
	.st0{fill:#1694D2;}
</style>
<title>Asset 7</title>
<g>
	<g id="Capa_1">
		<path class="st0" d="M52.3,87.5c0,3.7-3,6.7-6.7,6.8c-0.1,0-0.2,0-0.4,0c-3.8-0.1-6.9-3.2-6.9-7.1c0.2-3.8,3.3-6.8,7.2-6.8
			c3.8,0.1,6.8,3.2,6.8,7C52.3,87.4,52.3,87.5,52.3,87.5z"/>
		<path class="st0" d="M82.5,121.9c-3.8,0.1-7,3.2-7.1,7c0,3.9,3.1,7,6.9,7.1c3.9,0,7-3.1,7.1-6.9l0,0
			C89.4,125.3,86.3,122.1,82.5,121.9z M82.5,121.9c-3.8,0.1-7,3.2-7.1,7c0,3.9,3.1,7,6.9,7.1c3.9,0,7-3.1,7.1-6.9l0,0
			C89.4,125.3,86.3,122.1,82.5,121.9z M82.5,121.9c-3.8,0.1-7,3.2-7.1,7c0,3.9,3.1,7,6.9,7.1c3.9,0,7-3.1,7.1-6.9l0,0
			C89.4,125.3,86.3,122.1,82.5,121.9z M119.7,80.4c-3.8-0.1-7,2.9-7.1,6.6c0,0.1,0,0.1,0,0.2c-0.2,3.7,2.6,6.9,6.3,7.1
			c0.1,0,0.2,0,0.4,0c3.8,0.1,7.1-2.9,7.2-6.7C126.5,83.7,123.5,80.5,119.7,80.4z M227.2,120.8c-1.6-1.2-3.3-2.3-5-3.4
			c-1.4-0.8-2.1-2.4-1.8-4v-0.3c0-0.1,0-0.2,0-0.3c0.3-2.1,0.6-4.1-0.1-6c-0.5-1.1-0.1-2.4,0.9-3.1c1.3-1,2.6-2.1,3.9-3.1
			s2.5-2,3.8-3c-2.2-3.8-4.3-7.6-6.4-11.3c-2.4,1-4.7,1.9-7,2.8l-2.3,0.9c-0.9,0.5-1.9,0.3-2.6-0.3c-2-1.6-4.2-2.9-6.5-3.9
			c-1.1-0.5-1.9-1.5-2-2.7c-0.3-2-0.6-3.9-0.9-5.9l-0.5-3.5c-4.3,0-8.6,0-13,0c-0.2,1.1-0.3,2.2-0.5,3.3c-0.3,1.9-0.6,3.9-0.9,5.8
			c0,1.6-1.2,3-2.8,3.2c-0.3,0.1-0.6,0.2-0.9,0.4l-0.3,0.1c-1.2,0.7-2.4,1.5-3.5,2.3l-1.2,0.8c-0.8,0.6-1.9,0.7-2.8,0.3l-4.4-1.8
			l-4.5-1.9c-2,3.6-4.2,7.3-6.5,11.4c0.8,0.6,1.6,1.2,2.3,1.8c1.5,1.2,3.1,2.4,4.7,3.6c1.4,0.9,2.1,2.7,1.7,4.3v0.1l-1.5-0.1
			l1.5,0.3c-0.3,2.2-0.6,4.3,0.2,6.2c0.4,1,0.1,2.1-0.9,2.6l-0.1,0.1l-2.2,1.7c-1.9,1.5-3.7,3-5.6,4.5c2.2,3.8,4.3,7.6,6.4,11.3
			c2.1-0.9,4.2-1.7,6.3-2.5l3.1-1.2c0.4-0.2,0.7-0.2,1.1-0.3c0.5,0,1,0.2,1.4,0.6c2,1.6,4.2,2.9,6.5,3.9c1.2,0.5,2,1.6,2.1,2.9
			c0.2,1.6,0.4,3.1,0.7,4.7c0.2,1.4,0.4,2.8,0.6,4.1c1.6,0,3.2,0,4.8,0h8.7c0.2-1.3,0.4-2.6,0.6-3.9c0.3-1.8,0.6-3.6,0.9-5.4
			c0.1-1,0.7-1.8,1.6-2.2l0.3-0.2c2.3-1,4.4-2.2,6.3-3.8c0.8-0.7,1.9-0.9,2.9-0.4l4.8,1.9l4.3,1.8c2.2-3.8,4.4-7.7,6.6-11.5
			C228.9,121.9,228.1,121.3,227.2,120.8z M206.6,122.6c-3.2,3.3-7.6,5.1-12.2,5.1h-0.1c-9.6,0-17.5-7.8-17.5-17.5
			s7.8-17.5,17.5-17.5h0.1c9.7,0.1,17.4,7.9,17.4,17.6C211.7,114.9,209.9,119.3,206.6,122.6z M194.4,99.7L194.4,99.7
			c-5.7,0.1-10.4,4.7-10.5,10.5c0.1,5.7,4.7,10.3,10.4,10.5c2.8,0,5.5-1.1,7.4-3.1c4.1-4.1,4.1-10.7,0-14.8
			C199.7,100.8,197.1,99.8,194.4,99.7L194.4,99.7z M227.2,120.7c-1.6-1.2-3.3-2.3-5-3.4c-1.4-0.8-2.1-2.4-1.8-4V113
			c0-0.1,0-0.2,0-0.3c0.3-2.1,0.6-4.1-0.1-6c-0.5-1.1-0.1-2.4,0.9-3.1c1.3-1,2.6-2.1,3.9-3.1c1.2-1,2.5-2,3.8-3
			c-2.2-3.8-4.3-7.6-6.4-11.3c-2.4,1-4.7,1.9-7,2.8l-2.3,0.9c-0.9,0.5-1.9,0.3-2.6-0.3c-2-1.6-4.2-2.9-6.5-3.9
			c-1.1-0.5-1.9-1.5-2-2.7c-0.3-2-0.6-3.9-0.9-5.9l-0.5-3.5c-4.3,0-8.6,0-13,0c-0.2,1.1-0.3,2.2-0.5,3.3c-0.3,1.9-0.6,3.9-0.9,5.8
			c0,1.6-1.2,3-2.8,3.2c-0.3,0.1-0.6,0.2-0.9,0.4l-0.3,0.1c-1.2,0.7-2.4,1.5-3.5,2.3l-1.2,0.8c-0.8,0.6-1.9,0.7-2.8,0.3l-4.4-1.8
			l-4.5-1.9c-2,3.6-4.2,7.3-6.5,11.4c0.8,0.6,1.6,1.2,2.3,1.8c1.5,1.2,3.1,2.4,4.7,3.6c1.4,0.9,2.1,2.7,1.7,4.3v0.1l-1.5-0.1
			l1.5,0.3c-0.3,2.2-0.6,4.3,0.2,6.2c0.4,1,0.1,2.1-0.9,2.6l-0.1,0.1l-2.2,1.7c-1.9,1.5-3.7,3-5.6,4.5c2.2,3.8,4.3,7.6,6.4,11.3
			c2.1-0.9,4.2-1.7,6.3-2.5l3.1-1.2c0.4-0.2,0.7-0.2,1.1-0.3c0.5,0,1,0.2,1.4,0.6c2,1.6,4.2,2.9,6.5,3.9c1.2,0.5,2,1.6,2.1,2.9
			c0.2,1.6,0.4,3.1,0.7,4.7c0.2,1.4,0.4,2.8,0.6,4.1c1.6,0,3.2,0,4.8,0h8.7c0.2-1.3,0.4-2.6,0.6-3.9c0.3-1.8,0.6-3.6,0.9-5.4
			c0.1-1,0.7-1.8,1.6-2.2l0.3-0.2c2.3-1,4.4-2.2,6.3-3.8c0.8-0.7,1.9-0.9,2.9-0.4l4.8,1.9l4.3,1.8c2.2-3.8,4.4-7.7,6.6-11.5
			C228.9,121.9,228.1,121.3,227.2,120.7L227.2,120.7z M206.6,122.5c-3.2,3.3-7.6,5.1-12.2,5.1h-0.1c-9.6,0-17.5-7.8-17.5-17.5
			s7.8-17.5,17.5-17.5h0.1c9.7,0.1,17.4,7.9,17.4,17.6C211.7,114.9,209.9,119.3,206.6,122.5L206.6,122.5z M194.4,99.7L194.4,99.7
			c-5.7,0.1-10.4,4.7-10.5,10.5c0.1,5.7,4.7,10.3,10.4,10.5c2.8,0,5.5-1.1,7.4-3.1c4.1-4.1,4.1-10.7,0-14.8
			C199.7,100.8,197.1,99.8,194.4,99.7L194.4,99.7z M119.7,80.3c-3.8-0.1-7,2.9-7.1,6.6c0,0.1,0,0.1,0,0.2c-0.2,3.7,2.6,6.9,6.3,7.1
			c0.1,0,0.2,0,0.4,0c3.8,0.1,7.1-2.9,7.2-6.7C126.5,83.7,123.5,80.5,119.7,80.3z M82.5,121.9c-3.8,0.1-7,3.2-7.1,7
			c0,3.9,3.1,7,6.9,7.1c3.9,0,7-3.1,7.1-6.9l0,0C89.4,125.3,86.3,122.1,82.5,121.9z M246.6,47.5c-38.1,0.1-76.3,0.1-114.4,0
			s-76.4-0.1-114.7,0c-2,0-2.5,0.5-2.5,2.5c0.1,34.3,0.1,68.5,0.1,102.8c0,11.9,7.8,19.8,19.7,19.8c64.9,0,129.8,0,194.7,0
			c11.5,0,19.5-8,19.5-19.6c0-34.3,0-68.7,0.1-103.1C249.1,47.9,248.6,47.5,246.6,47.5z M51.9,99.9c-2.3,1.1-2.9,2.5-2.9,4.9
			c0.1,13.3,0,26.7,0,40.1c0,0.9,0,1.8,0,2.8c0,2.6-1.1,4.7-4,4.5c-2.6-0.1-3.4-2-3.4-4.5c0.1-7.4,0-14.7,0-22.1
			c0-7.1-0.1-14.1,0-21.2c0-2.1-0.5-3.2-2.6-4.2c-5.1-2.2-8.3-7.3-8.1-12.8c-0.2-5.6,3.1-10.7,8.2-12.8c2.3-1,2.8-2.4,2.6-4.6
			c-0.2-2.7-0.1-5.7,3.5-5.8c3.6-0.1,4.1,2.7,3.8,5.5c-0.3,2.6,0.7,3.9,3.1,5.2c4.9,2.4,7.4,6.7,7.4,12.3C59.6,93,57,97.4,51.9,99.9
			z M88.5,141.8c-2.8,1.2-2.5,3.1-2.4,5.1c0.1,2.7-0.5,5.2-3.7,5.2s-4-2.4-3.7-5.2s-0.5-4.3-3.2-5.6c-5-2.4-7.4-6.8-7.5-12.3
			c0-5.7,2.6-10.2,7.7-12.6c2.6-1.2,3-2.7,3-5.2c-0.1-13.8,0-27.6-0.1-41.4c0-2.8,0.1-5.7,3.7-5.7c3.5,0,3.8,2.8,3.8,5.6
			c-0.1,7.1,0,14.1,0,21.2s0.1,14.1,0,21.2c0,2.1,0.5,3.2,2.5,4.1c5.1,2.2,8.3,7.2,8.1,12.8C96.7,134.9,93.9,139.5,88.5,141.8z
			 M125.9,99.9c-2.3,1.1-2.9,2.4-2.9,4.9c0.1,13.8,0,27.6,0.1,41.4c0,2.7,0.1,5.8-3.5,5.8c-3.8,0.1-3.9-3-3.9-6c0-6.9,0-13.8,0-20.7
			c0-7.1,0-14.1,0-21.2c0-2-0.4-3.2-2.5-4.2c-5.1-2.2-8.3-7.3-8-12.9c0.1-5.8,2.7-10.1,7.9-12.5c2.5-1.2,2.8-2.7,2.7-5
			c-0.2-2.9,0.4-5.6,3.9-5.5c3.2,0.1,3.7,2.7,3.5,5.4c-0.3,2.7,0.4,4,3,5.2c5.2,2.4,7.8,6.9,7.7,12.6
			C134,92.8,130.9,97.7,125.9,99.9z M236.4,124.9l-4.8,8.4l-2.2,3.8c-0.3,0.5-0.6,1-0.9,1.5c-1.3,2.4-4.3,3.4-6.8,2.3l-2.8-1.1
			c-1.8-0.7-3.5-1.4-5.3-2.1c-1.1,0.8-2.3,1.4-3.5,2l-0.6,0.3c-0.4,2.9-0.9,5.8-1.3,8.6v0.1c-0.5,2.5-2.7,4.4-5.3,4.4h-8.1
			c-2.8,0-5.5,0-8.1,0c-2.8,0-5.1-2.1-5.4-4.9c-0.2-1.9-0.5-3.8-0.8-5.7c-0.1-0.9-0.3-1.7-0.4-2.6l-0.6-0.3c-1.2-0.6-2.4-1.3-3.5-2
			l-1.6,0.6c-2.1,0.8-4.2,1.7-6.3,2.5c-2.8,1.3-6.2,0.2-7.6-2.6c-1.6-2.9-3.2-5.8-4.8-8.6c-0.8-1.3-1.6-2.7-2.3-4
			c-1.7-3-1.2-5.6,1.5-7.8l1.1-0.9l5.1-4.2c-0.2-1.7-0.2-3.3,0.1-5l-3.1-2.4c-1.1-0.9-2.3-1.8-3.4-2.6c-1.1-0.8-1.9-2-2.3-3.3
			c-0.5-1.3-0.3-2.7,0.3-3.8l5.8-10l1.9-3.4c1.4-2.9,4.9-4.1,7.8-2.7c2.5,1,5,2.1,7.5,3.1l0.1-0.1c1.3-0.9,2.6-1.8,4-2.5
			c0.2-1.3,0.4-2.6,0.6-3.9c0.2-1.6,0.5-3.3,0.7-4.9c0.5-2.6,2.7-4.5,5.3-4.6c5.3,0,10.8,0,16.3,0c1.3,0,2.5,0.5,3.5,1.4
			c1,1.1,1.6,2.6,1.6,4.1c0.1,0.5,0.2,1,0.3,1.6c0.3,1.6,0.5,3.2,0.7,4.9c-0.1,1.1,0.6,2.2,1.7,2.4c0.8,0.3,1.6,0.7,2.2,1.3
			c0.3,0.2,0.4,0.3,1.2,0c1.4-0.6,2.8-1.2,4.2-1.7l2.9-1.2c2.8-1.3,6.1-0.2,7.5,2.6c1.6,2.9,3.3,5.9,4.9,8.7
			c0.8,1.4,1.6,2.7,2.3,4.1c1.6,2.9,1.1,5.5-1.4,7.6c-2.1,1.7-4.2,3.4-6.4,5.1c0.2,1.6,0.2,3.3-0.1,4.9l2,1.5
			c1.6,1.2,3.3,2.3,4.9,3.3C237.2,119,238,122.3,236.4,124.9C236.4,125,236.4,125,236.4,124.9L236.4,124.9z M222.2,117.3
			c-1.4-0.8-2.1-2.4-1.8-4v-0.3c0-0.1,0-0.2,0-0.3c0.3-2.1,0.6-4.1-0.1-6c-0.5-1.1-0.1-2.4,0.9-3.1c1.3-1,2.6-2.1,3.9-3.1
			c1.2-1,2.5-2,3.8-3c-2.2-3.8-4.3-7.6-6.4-11.3c-2.4,1-4.7,1.9-7,2.8l-2.3,0.9c-0.9,0.5-1.9,0.3-2.6-0.3c-2-1.6-4.2-2.9-6.5-3.9
			c-1.1-0.5-1.9-1.5-2-2.7c-0.3-2-0.6-3.9-0.9-5.9l-0.5-3.5c-4.3,0-8.6,0-13,0c-0.2,1.1-0.3,2.2-0.5,3.3c-0.3,1.9-0.6,3.9-0.9,5.8
			c0,1.6-1.2,3-2.8,3.2c-0.3,0.1-0.6,0.2-0.9,0.4l-0.3,0.1c-1.2,0.7-2.4,1.5-3.5,2.3l-1.2,0.8c-0.8,0.6-1.9,0.7-2.8,0.3l-4.4-1.8
			l-4.5-1.9c-2,3.6-4.2,7.3-6.5,11.4c0.8,0.6,1.6,1.2,2.3,1.8c1.5,1.2,3.1,2.4,4.7,3.6c1.4,0.9,2.1,2.7,1.7,4.3v0.1l-1.5-0.1
			l1.5,0.3c-0.3,2.2-0.6,4.3,0.2,6.2c0.4,1,0.1,2.1-0.9,2.6l-0.1,0.1l-2.2,1.7c-1.9,1.5-3.7,3-5.6,4.5c2.2,3.8,4.3,7.6,6.4,11.3
			c2.1-0.9,4.2-1.7,6.3-2.5l3.1-1.2c0.4-0.2,0.7-0.2,1.1-0.3c0.5,0,1,0.2,1.4,0.6c2,1.6,4.2,2.9,6.5,3.9c1.2,0.5,2,1.6,2.1,2.9
			c0.2,1.6,0.4,3.1,0.7,4.7c0.2,1.4,0.4,2.8,0.6,4.1c1.6,0,3.2,0,4.8,0h8.7c0.2-1.3,0.4-2.6,0.6-3.9c0.3-1.8,0.6-3.6,0.9-5.4
			c0.1-1,0.7-1.8,1.6-2.2l0.3-0.2c2.3-1,4.4-2.2,6.3-3.8c0.8-0.7,1.9-0.9,2.9-0.4l4.8,1.9l4.3,1.8c2.2-3.8,4.4-7.7,6.6-11.5
			c-0.8-0.6-1.7-1.2-2.5-1.8C225.6,119.6,223.9,118.4,222.2,117.3L222.2,117.3z M206.6,122.5c-3.2,3.3-7.6,5.1-12.2,5.1h-0.1
			c-9.6,0-17.5-7.8-17.5-17.5s7.8-17.5,17.5-17.5h0.1c9.7,0.1,17.4,7.9,17.4,17.6C211.7,114.9,209.9,119.3,206.6,122.5L206.6,122.5z
			 M194.4,99.7L194.4,99.7c-5.7,0.1-10.4,4.7-10.5,10.5c0.1,5.7,4.7,10.3,10.4,10.5c2.8,0,5.5-1.1,7.4-3.1c4.1-4.1,4.1-10.7,0-14.8
			C199.7,100.8,197.1,99.8,194.4,99.7L194.4,99.7z M119.7,80.3c-3.8-0.1-7,2.9-7.1,6.6c0,0.1,0,0.1,0,0.2c-0.2,3.7,2.6,6.9,6.3,7.1
			c0.1,0,0.2,0,0.4,0c3.8,0.1,7.1-2.9,7.2-6.7C126.5,83.7,123.5,80.5,119.7,80.3z M82.5,121.9c-3.8,0.1-7,3.2-7.1,7
			c0,3.9,3.1,7,6.9,7.1c3.9,0,7-3.1,7.1-6.9l0,0C89.4,125.3,86.3,122.1,82.5,121.9z M82.5,121.9c-3.8,0.1-7,3.2-7.1,7
			c0,3.9,3.1,7,6.9,7.1c3.9,0,7-3.1,7.1-6.9l0,0C89.4,125.3,86.3,122.1,82.5,121.9z M119.7,80.4c-3.8-0.1-7,2.9-7.1,6.6
			c0,0.1,0,0.1,0,0.2c-0.2,3.7,2.6,6.9,6.3,7.1c0.1,0,0.2,0,0.4,0c3.8,0.1,7.1-2.9,7.2-6.7C126.5,83.7,123.5,80.5,119.7,80.4z
			 M119.7,80.4c-3.8-0.1-7,2.9-7.1,6.6c0,0.1,0,0.1,0,0.2c-0.2,3.7,2.6,6.9,6.3,7.1c0.1,0,0.2,0,0.4,0c3.8,0.1,7.1-2.9,7.2-6.7
			C126.5,83.7,123.5,80.5,119.7,80.4z M82.5,121.9c-3.8,0.1-7,3.2-7.1,7c0,3.9,3.1,7,6.9,7.1c3.9,0,7-3.1,7.1-6.9l0,0
			C89.4,125.3,86.3,122.1,82.5,121.9z"/>
		<path class="st0" d="M17.8,42.1C55.9,42,93.9,41.9,132,42h76.8c12.8,0,25.5,0,38.3,0c0.7,0,2,0.7,2-1c-0.1-4.3,0.4-8.5-0.2-12.7
			c-1.4-9-9.3-16.3-19.9-16.3c-49.3,0.2-98.6,0.1-148,0.1c-15.5,0-31.1,0-46.6,0c-9.3-0.2-17.4,6.3-19,15.5c-0.7,3.8,0,7.7-0.4,11.6
			C14.9,41.4,15.4,42.1,17.8,42.1z M216.8,26.6c3.3,0,6.6,0,10,0c1.9,0,3.1,0.9,3.2,2.9s-1.2,2.9-3.1,3c-1.7,0.1-3.4,0-5.1,0
			s-3.3,0-4.9,0c-2.2-0.1-3.3-1.1-3.3-3C213.7,27.4,214.9,26.7,216.8,26.6L216.8,26.6z M188.9,26.6c3.4,0,6.8-0.1,10.2,0
			c1.8,0,3,0.9,3.1,2.8s-1.1,3-3,3.1c-1.7,0.1-3.4,0-5.1,0s-3.4,0-5.1,0c-1.9-0.1-3.1-0.9-3.1-3S187,26.7,188.9,26.6L188.9,26.6z
			 M37.6,26.6c10.3,0,20.6,0,30.9,0h97.4c0.8-0.1,1.7,0,2.5,0.1c1.4,0.2,2.4,1.4,2.3,2.8c0.1,1.4-0.8,2.6-2.2,2.9
			c-0.7,0.1-1.4,0.2-2.1,0.1h-128c-3,0-4.2-0.8-4.3-2.7C33.9,27.7,35.1,26.7,37.6,26.6L37.6,26.6z"/>
		<path class="st0" d="M175.2,199.7c-28.8,0-57.7,0-86.5,0c-7.5,0-13.8,5.5-15,12.9c-0.5,2.9-0.1,5,4.2,5c18-0.1,36,0,54,0h54
			c4.1,0,5.2-1.4,4.3-5.5C189.1,204.8,182.7,199.5,175.2,199.7z"/>
		<path class="st0" d="M92.4,178c-1.8,0-2.2,0.5-2.2,2.2c0.1,4.1,0.1,8.2,0,12.3c0,1.2,0.2,1.8,1.6,1.8c26.7,0,53.5,0,80.2,0
			c1.3,0,1.7-0.4,1.7-1.7c-0.1-4.1-0.1-8.2,0-12.3c0.1-1.9-0.6-2.3-2.3-2.3c-13.1,0.1-26.1,0-39.2,0l0,0
			C119,178,105.7,178.1,92.4,178z"/>
	</g>
</g>
</svg>
