<svg xmlns="http://www.w3.org/2000/svg" viewBox="0 0 288 288"><defs><style>.cls-1{fill:#fff;opacity:0;}.cls-2{fill:#1694d2;}</style></defs><title>Asset 12</title><g id="Layer_2" data-name="Layer 2"><g id="Capa_1" data-name="Capa 1"><rect class="cls-1" width="288" height="288"/><path class="cls-2" d="M201.76,55.5c0,.92,0,1.83,0,2.75-.06,2-.19,3.86,1.66,5.62s2.12,4.87,2.26,7.55a38.9,38.9,0,0,1-4.13,20.22c-1.13,2.19-2.49,4.25-4.85,5.35-.68.32-.7,1-.93,1.56-4.91,12.32-11.56,23.54-21.1,32.89-6,5.87-12.79,10.52-20.95,12.82-10.94,3.08-21,.73-30.38-5.29-10.13-6.52-17.47-15.62-23.5-25.88a95.49,95.49,0,0,1-7-14.64,2.3,2.3,0,0,0-1.44-1.52,7.73,7.73,0,0,1-3.51-3.16c-3.16-4.66-4.5-9.93-5.2-15.41a27.56,27.56,0,0,1,.68-11.88c.56-1.83,1.33-3.56,3.29-4.33.88-.35.46-1.07.51-1.62.89-9,1.76-18.1,4.52-26.77,4.5-14.13,14.3-23.47,27.83-29,10.91-4.49,22.33-5.42,34-4.32a57.86,57.86,0,0,1,24.33,7.46c12.46,7.37,19.51,18.53,22.51,32.48A67,67,0,0,1,201.76,55.5Z"/><path class="cls-2" d="M144,285.9H97.53c-4.23,0-5.93-1.69-5.93-5.9V218.44c0-4.22,1.68-5.88,5.92-5.88,6,0,12,0,18,0,1.18,0,1.55-.27,1.51-1.5-.09-3.42,0-6.85,0-10.28a9.9,9.9,0,0,1,10.14-10.22q16.89,0,33.78,0a9.9,9.9,0,0,1,10.19,10.17c0,3.08,0,6.17,0,9.26,0,2.54,0,2.54,2.47,2.54h17.49c3.64,0,5.44,1.83,5.44,5.49q0,31.22,0,62.42c0,3.59-1.86,5.42-5.53,5.43Zm20.27-36.61c0-1.83,0-3.66,0-5.49,0-2-.68-2.67-2.67-2.68-2.74,0-5.49,0-8.23,0-1,0-1.26-.28-1.24-1.24.06-2.8.05-5.6,0-8.4,0-1.82-.7-2.46-2.52-2.47q-5.48,0-11,0c-2,0-2.64.62-2.67,2.67,0,2.74,0,5.49,0,8.23,0,1-.31,1.24-1.26,1.22-2.74-.06-5.48,0-8.22,0-1.92,0-2.64.69-2.65,2.54q0,5.57,0,11.14c0,1.79.68,2.43,2.52,2.45,2.63,0,5.26.07,7.88,0,1.29,0,1.82.22,1.75,1.66-.13,2.62,0,5.25,0,7.88,0,2,.69,2.67,2.7,2.68q5.4,0,10.8,0c2,0,2.65-.7,2.67-2.7,0-2.69,0-5.37,0-8.06,0-1.09.24-1.5,1.42-1.46,2.79.09,5.6,0,8.39,0a2,2,0,0,0,2.33-2.3Zm-20-46c-4.39,0-8.78,0-13.17,0-1.14,0-1.45.32-1.41,1.43.08,2.28.05,4.56,0,6.84,0,.79.18,1.09,1,1.09q13.35,0,26.7,0c.83,0,1.08-.25,1.06-1.07-.05-2.22-.09-4.45,0-6.67.05-1.23-.22-1.66-1.56-1.63C152.69,203.3,148.47,203.24,144.24,203.24Z"/><path class="cls-2" d="M163.53,174.72c3.45-4.07,6.83-8,10.15-12a128.07,128.07,0,0,0,9-11.9,21.83,21.83,0,0,0,3-5.75c.2-.71.52-.83,1.23-.66a58.5,58.5,0,0,0,11.73,1.26,3.3,3.3,0,0,1,2.41,1,22.38,22.38,0,0,1,5,8.29c.4,1.1.19,1.53-.91,2a14.51,14.51,0,0,0-9.14,14.32,14.67,14.67,0,1,0,20.81-14.11,2.53,2.53,0,0,1-1.67-2.06,29.28,29.28,0,0,0-2.87-7.88,40.68,40.68,0,0,1,27.3,14.16c7.93,9,12.54,19.75,16.14,31a26.36,26.36,0,0,1,.12,16.81c-1.94,5.84-6.22,9.58-11.29,12.59-7.68,4.57-16.15,7.08-24.75,9.19-2,.48-4,.87-6,1.35-1,.25-1.38,0-1.36-1.12.06-4.63,0-9.26,0-13.89a20.52,20.52,0,0,0-20.49-20.67c-1.65,0-3.69.52-4.85-.25-1-.67-.92-2.87-1.48-4.34C181.73,182,174.31,176.39,163.53,174.72Z"/><path class="cls-2" d="M75.74,147.29a27,27,0,0,0-3.17,7.93,1.55,1.55,0,0,1-.69.94,3.09,3.09,0,0,0-1,.89c-1.43,2.69-4.15,3.93-6.34,5.77-4.55,3.83-8.43,8.53-9.9,14.13-2.48,9.39-5.34,18.88-3.53,28.88.81,4.47,3.17,7.2,7.55,8.77,3.16,1.13,6.24,1.06,9.4,1.06a5,5,0,0,0,5-5,4.94,4.94,0,0,0-5-5,38.17,38.17,0,0,0-7,.18c-1.27.24-1.23-.78-1.32-1.5a40.58,40.58,0,0,1,.8-15c.27-1.11.63-2.19.91-3.29a4.21,4.21,0,0,1,1.84-2.74,6,6,0,0,0,1.93-2.77,27.85,27.85,0,0,1,6.19-8.76c3.82-3.46,7.08-3.4,10.82.15a27.9,27.9,0,0,1,5.72,8.06A6.89,6.89,0,0,0,90.18,183a2,2,0,0,1,.75,1.1,46.65,46.65,0,0,1,2.64,11.65c.08.84-.16,1.17-1,1.36-10.49,2.35-16.77,10.22-16.79,20.95,0,4.4,0,8.8,0,13.2,0,.85,0,1.42-1.16,1.18-10.28-2.21-20.44-4.75-29.74-9.88a43.35,43.35,0,0,1-4.47-2.85c-8-5.87-10.93-14-8.79-23.38,2.92-12.86,8.22-24.77,17-34.86A40.49,40.49,0,0,1,75.74,147.29Z"/><path class="cls-2" d="M124.67,174.72c-11.19,1.68-18.58,7.71-22.51,18.44-.35-1.79-.59-3.31-.94-4.8-.45-1.88-.92-3.77-1.52-5.61a7.91,7.91,0,0,1-.65-4.28,4.79,4.79,0,0,0-.8-3.09c-3.2-6.37-7.23-12-13.68-15.54-1.36-.75-1.8-2.58-3.1-3.57-.35-.27,0-.76.19-1.1a21.62,21.62,0,0,1,6.47-8.9,2.46,2.46,0,0,1,1.55-.56,60.62,60.62,0,0,0,11.72-1.3c.52-.13.83-.09,1,.5,1.69,4.89,5,8.82,8,12.85C114.88,163.57,119.69,169.06,124.67,174.72Z"/><path class="cls-2" d="M136.16,174.73c.79-3.1,1.55-6.06,2.3-9,.17-.71.39-1.29-.4-1.95-3.25-2.67-3.79-6.44-4-10.34,0-.72.33-.83.94-.82q9.06,0,18.14,0c.69,0,.89.27.85.91-.21,3.95-.75,7.77-4.15,10.42a1.12,1.12,0,0,0-.4,1.44c.75,2.75,1.42,5.51,2.16,8.26.19.74.23,1.15-.76,1.14C146,174.71,141.18,174.73,136.16,174.73Z"/><path class="cls-2" d="M218.52,170.56a7.93,7.93,0,1,1-7.85-8A7.88,7.88,0,0,1,218.52,170.56Z"/></g></g></svg>