<svg xmlns="http://www.w3.org/2000/svg" viewBox="0 0 330.01 151.34"><defs><style>.cls-1{fill:#fff;}.cls-2{fill:#1694d2;}</style></defs><title>Asset 2</title><g id="Layer_2" data-name="Layer 2"><g id="Capa_1" data-name="Capa 1"><rect class="cls-1" width="141.07" height="141.07" rx="15.67"/><path class="cls-2" d="M79.46,118.77c-3.66,0-7.32,0-11,0-2.29,0-4.15-.66-4.15-3.16s1.78-3.07,4.11-3.15c7.29-.25,14.57.55,21.89-.7,15.7-2.68,26.33-11.71,31-26.43,4.56-14.25.75-27.26-9.76-38.25C104.8,40,96.36,37,86.85,36.59c-5.81-.26-11.65-.11-17.47,0-2.57,0-4.95-.38-5.06-3.38s2.06-3.72,4.74-3.66c11.2.25,22.36-.71,33.26,3.77,22,9,31.61,34.16,24.59,55.8-4.93,15.19-24.21,31.79-45.45,29.69C80.8,118.72,80.13,118.77,79.46,118.77Z"/><path class="cls-2" d="M77.29,46.54c-3.34,0-6.67.08-10,0A14.3,14.3,0,0,1,54,34.61c-.35-2.51.54-4.53,3-4.9,2.31-.35,3.69,1.33,3.68,3.66,0,4.91,3.07,6,7.13,6.2C76.88,40,86,38.64,95,41.43c23.19,7.22,34.5,38.11,12.06,59-6,5.6-14.1,7.73-22.39,8-5.49.19-11,.06-16.49,0-4.43,0-7.48,1.52-7.45,6.53,0,2.83-1.44,4-4.09,3.52s-2.91-2.38-2.61-4.53c1-7.22,5.6-11.29,13.11-11.71,7.3-.41,14.61.45,21.92-.69a27.43,27.43,0,0,0,22-35.86C107.18,53.88,97,46.54,84.28,46.55Z"/><path class="cls-2" d="M76.52,50.54c6.73.2,13.26-.19,19.9,2.82,13.45,6.1,18.71,29.21,2.2,40.3a22.17,22.17,0,0,1-10,4.1c-8.8,1-17.67,1.61-26.29-.34-12-2.72-21-13.19-17.9-27.43,2.85-13.22,10.67-19.46,24-19.45Zm-1.29,41c3.67,0,6.66,0,9.66,0,9.23-.12,16.26-6.56,17.62-16.11,1-7-5.17-16.07-12.86-17.92-8.46-2-17.22-1.58-25.7-.36-7.44,1.08-12.87,8-13.93,15.6-.89,6.33,3.16,12.94,9.86,16.83C65,92.55,70.54,91.11,75.23,91.53Z"/><path class="cls-2" d="M22.11,74.42c-.55-6.7,2.08-13,4.71-19.19,2.89-6.85,5.88-13.61,5.55-21.29-.08-2.09.64-4.27,3.12-4.26,3,0,2.83,2.47,3,4.7C39.12,43.62,35.32,51.86,32,60c-4,9.78-4.07,18.66,0,28.51,3.27,7.91,7.11,16,6.44,25.11-.17,2.29.43,5.1-3.11,5-3.06,0-3.1-2.56-3-4.72.45-9.45-4.4-17.38-7.49-25.77A37.69,37.69,0,0,1,22.11,74.42Z"/><path class="cls-2" d="M28.34,36.44C28,42.31,26,47.7,23.52,52.89,16.91,66.63,16.19,80.21,23,94.25c3,6.13,5.94,12.53,5.4,19.81-.17,2.29-.72,4.15-3.06,4.32s-3.21-1.71-3.32-4c-.44-8.55-4.28-16.16-7.18-24-4.51-12.15-3.58-23.76,1.1-35.55,2.6-6.54,5.47-13.09,6.06-20.24.21-2.45.69-4.31,3.68-4.11s2.64,2.4,2.65,4.39C28.34,35.44,28.34,35.94,28.34,36.44Z"/><path class="cls-2" d="M51.11,52.38c-1.14-2,.23-3.55.52-5.24.25-1.47.44-3.42,2-3.42,1.76,0,3.14,1.75,3.87,3.3,1.08,2.28-1.35,2.5-2.57,3.3S52.39,51.7,51.11,52.38Z"/><path class="cls-2" d="M51.25,96.61c2.18,1.92,6.6,1.17,6.32,5.21-.12,1.62-2.77,3-3.8,2.5C50.62,102.93,51.08,99.65,51.25,96.61Z"/><path class="cls-2" d="M76.19,87.54h-9a13.53,13.53,0,0,1-13.35-13.1C53.55,68,59.74,60.9,66.37,60.6c6.48-.28,13-.24,19.46,0s13.08,7.08,12.78,13.54c-.28,6-5.31,14.71-13.45,13.48C82.23,87.16,79.18,87.54,76.19,87.54Zm-.37-6v0c3.16,0,6.33.22,9.46-.06,4.08-.36,7.35-4,6.88-7.7-.55-4.2-3.14-6.31-7.48-6.26-5.48.07-11,0-16.45,0-5.18,0-7.46,2-7.52,6.32-.06,4.73,2.6,7.46,7.63,7.68C70.83,81.62,73.33,81.54,75.82,81.54Z"/><path class="cls-2" d="M75.91,77.54c-2.64,0-5.29,0-7.93,0-2.16,0-3.53-1.11-3.64-3.2a3.27,3.27,0,0,1,3.55-3.77c5.45-.06,10.9,0,16.35,0,2.43,0,4,1.36,4,3.48s-1.45,3.57-3.9,3.53C81.53,77.5,78.72,77.54,75.91,77.54Z"/><path class="cls-1" d="M152.6,110.66l5.3-5.91a34.78,34.78,0,0,0,25.37,11.56c12.69,0,20.48-6.6,20.48-16.28,0-10.16-6.87-13.4-15.46-17.21L175.13,77c-8-3.47-18-9.36-18-22.49S168.53,31.75,184,31.75a35.29,35.29,0,0,1,25.45,10.83l-4.72,5.6A28.42,28.42,0,0,0,184,39.42c-10.92,0-18.2,5.69-18.2,14.53,0,9.54,8.35,13.12,15.08,16l13.09,5.76c10.12,4.44,18.54,10.23,18.54,23.66,0,13.84-11.39,24.58-29.33,24.58A40.76,40.76,0,0,1,152.6,110.66Z"/><path class="cls-1" d="M221.68,150l1.76-6.9a16.59,16.59,0,0,0,5.16,1c7.69,0,12.76-6.68,15.79-15.77l1.65-5.28L219.5,57h8.82l14.6,38.74c2.11,5.6,4.51,12.45,6.76,18.37h.54c2-5.86,4-12.71,5.79-18.37L268.85,57h8.36L252,129.22c-4.1,11.88-10.77,22.12-23.15,22.12A18.61,18.61,0,0,1,221.68,150Z"/><path class="cls-1" d="M283,114.92l4.41-5.75c5.6,4.6,11.46,8,20.07,8,9.47,0,14.3-5.33,14.3-11.6,0-7.5-8.11-10.79-15.5-13.5-9.52-3.43-20.18-7.67-20.18-18.76,0-9.91,7.89-17.94,21.75-17.94a31.85,31.85,0,0,1,19.45,7l-4.21,5.63c-4.45-3.31-9.08-5.89-15.26-5.89-9.27,0-13.49,5.16-13.49,10.69,0,6.87,7.41,9.48,15,12.33,9.79,3.71,20.66,7.28,20.66,19.87,0,10.21-8.13,18.9-22.87,18.9A38.22,38.22,0,0,1,283,114.92Z"/></g></g></svg>