<?xml version="1.0" encoding="utf-8"?>
<!-- Generator: Adobe Illustrator 23.0.3, SVG Export Plug-In . SVG Version: 6.00 Build 0)  -->
<svg version="1.1" id="Layer_1" xmlns="http://www.w3.org/2000/svg" xmlns:xlink="http://www.w3.org/1999/xlink" x="0px" y="0px"
	 viewBox="0 0 320.2 217" style="enable-background:new 0 0 320.2 217;" xml:space="preserve">
<style type="text/css">
	.st0{fill:#1694D2;}
</style>
<title>Asset 6</title>
<g>
	<g id="Capa_1">
		<path class="st0" d="M184.6,79.9l53.1,25.7c3.2,1.3,6.9,1.3,10.1,0L301,79.9c2.8-1.4,2.8-3.6,0-4.9l-53.1-25.7
			c-3.2-1.3-6.9-1.3-10.1,0L184.6,75C181.8,76.3,181.8,78.5,184.6,79.9z M301,106.2l-11-5.3c-1.3-0.6-1.6-0.6-3,0s-39.2,19-39.2,19
			c-3.2,1.3-6.9,1.3-10.1,0c0,0-36.8-17.8-38.6-18.7c-1.9-0.9-2.4-0.9-4.1-0.1l-10.5,5.1c-2.8,1.3-2.8,3.6,0,4.9l53.1,25.7
			c3.2,1.3,6.9,1.3,10.1,0l53.1-25.7C303.8,109.8,303.8,107.6,301,106.2L301,106.2z M301,137.5l-11-5.3c-1.3-0.6-1.6-0.6-3,0
			c-1.4,0.6-39.2,19-39.2,19c-3.2,1.3-6.9,1.3-10.1,0c0,0-36.8-17.8-38.6-18.7c-1.9-0.9-2.4-0.9-4.1-0.1l-10.5,5.1
			c-2.8,1.3-2.8,3.6,0,4.9l53.1,25.7c1.6,0.7,3.3,1,5,1c1.7,0,3.5-0.3,5.1-1l53.2-25.7C303.8,141.1,303.8,138.8,301,137.5z"/>
		<path class="st0" d="M123.7,76.4c1.2,0.2,2.5,0.3,3.7,0.6c5.9,1.5,10.8,4.6,13.8,10c1.7,3.1,2.5,6.7,2.2,10.2
			c-0.1,2.4-0.6,4.8-0.7,7.3c-0.1,0.8,0,1.6,0.1,2.3c0.2,0.9,0.6,1.7,1.3,2.3c0.6,0.5,0.6,1,0.2,1.4c-0.4,0.4-0.8,0.4-1.4-0.1
			c-1.3-1.2-2.1-2.9-2-4.6c0-2.3,0.2-4.5,0.6-6.8c0.7-5.9-0.6-11.1-5-15.3c-2.8-2.6-6.2-4.4-10-5.2c-8.4-2-17.2,1.7-21.6,9.2
			c-0.5,0.8-1.1,1.7-1.6,2.5c-0.4,0.6-0.9,0.7-1.3,0.3c-0.4-0.3-0.4-0.8,0-1.4c0.9-1.3,1.7-2.7,2.6-3.9c3.5-5.1,9.2-8.3,15.4-8.8
			c0.1,0,0.3,0,0.4-0.1L123.7,76.4z"/>
		<path class="st0" d="M129.9,98.4c-0.1,1.7-0.5,3.3-1.4,4.7c-2.9,5.9-7.5,10.8-13.2,13.9c-3.8,2.2-8,3.8-12.3,4.7
			c-0.7,0.2-1.1-0.1-1.2-0.6c-0.1-0.5,0.2-0.9,0.9-1.1c4.9-1.1,9.6-3,13.8-5.8c5.1-3.2,9-8,11.3-13.6c1.1-2.5,0.3-5.4-1.9-7.1
			c-2.1-1.7-5.2-1.8-7.4-0.2c-0.8,0.6-1.5,1.4-1.9,2.3c-2.2,5.7-6.6,8.9-12,11.1c-1.2,0.5-2.4,0.9-3.7,1.2c-0.4,0.2-0.8,0.1-1.1-0.1
			c-0.4-0.3-0.4-0.9-0.1-1.2c0.1-0.1,0.3-0.2,0.5-0.3c1.4-0.4,2.8-0.8,4.2-1.4c3.3-1.3,6.2-3.4,8.4-6.1c0.8-1.1,1.5-2.3,2-3.5
			c1.3-3.2,4.5-5.1,7.9-4.7c3.6,0.4,6.5,3.1,7.1,6.7C129.9,97.6,129.9,98,129.9,98.4z"/>
		<path class="st0" d="M122.1,85.1c-4.9,0-9.4,2.7-11.6,7c-0.3,0.6-0.6,1.1-0.9,1.7c-1.6,3.1-4.4,5.4-7.9,6.2l-0.8,0.2
			c-0.5,0.1-0.9-0.1-1.1-0.6c-0.1-0.5,0.1-0.9,0.6-1.1c0.4-0.1,0.8-0.2,1.3-0.4c2.8-0.8,5.1-2.7,6.4-5.3c1-2.1,2.3-3.9,3.9-5.6
			c6.7-6.3,18.1-4.9,22.8,2.8c1.5,2.6,2.1,5.5,1.7,8.5c-0.2,2.3-0.7,4.5-0.9,6.8c-0.2,1.3-0.1,2.7,0.1,4c0.5,2.1,1.8,3.9,3.6,5
			c1,0.7,2.1,1.3,3.3,1.7c0.2,0.1,0.4,0.2,0.6,0.3c0.3,0.2,0.4,0.7,0.2,1.1c-0.1,0.4-0.5,0.6-0.9,0.4c0,0,0,0,0,0
			c-3.8-1.5-7.2-3.5-8.3-7.8c-0.4-1.9-0.4-3.9-0.1-5.8c0.4-2.4,0.7-4.9,0.8-7.3c0-4.9-2.3-8.3-6.6-10.5
			C126.4,85.5,124.2,85,122.1,85.1z"/>
		<path class="st0" d="M122.3,79.7c4.1,0,8,1.3,11.3,3.8c4.8,3.7,6.8,8.7,6.4,14.8c-0.2,2.6-0.7,5.2-0.8,7.8c-0.1,0.8,0,1.7,0.2,2.5
			c0.5,1.8,1.8,3.4,3.5,4.1c0.3,0.1,0.5,0.3,0.8,0.4c0.4,0.2,0.5,0.7,0.3,1.1c0,0,0,0,0,0.1c-0.2,0.4-0.6,0.6-1,0.4c0,0,0,0,0,0
			c-3.7-1.6-5.4-3.9-5.5-7.7c0-2,0.2-3.9,0.6-5.9c0.6-3,0.4-6-0.4-8.9c-1.5-4.7-5.2-8.4-10-9.7c-6.6-2-12.4-0.5-17.4,4.2
			c-1,1-1.8,2.1-2.5,3.3c-0.6,1-1.2,1.9-1.8,2.9c-1.1,1.5-2.5,2.6-4.2,3.3c-0.4,0.3-1,0.1-1.3-0.3c0,0,0,0,0-0.1
			c-0.2-0.5,0-1,0.5-1.2c0,0,0.1,0,0.1,0c1.8-0.7,3.3-2.1,4.2-3.7c0.5-0.9,1.1-1.8,1.7-2.7c2.7-4.2,7-7,11.9-7.9
			C120,79.8,121.1,79.7,122.3,79.7z"/>
		<path class="st0" d="M133.2,97.9c-0.1,2.3-0.4,4.6-0.9,6.8c-0.3,1.6-0.4,3.2-0.3,4.8c0.3,2.4,1.5,4.5,3.4,6c2,1.6,4.2,2.9,6.6,3.8
			c0.5,0.2,0.8,0.5,0.7,1.1c-0.1,0.5-0.6,0.8-1.1,0.6c0,0-0.1,0-0.1,0c-3.3-1.4-6.5-3-8.8-5.9c-1.9-2.4-2.8-5.5-2.3-8.6
			c0.2-2.2,0.8-4.4,1-6.6c0.4-3.5-0.2-6.7-3-9.1c-3.7-3.1-9.1-3-12.6,0.2c-1.4,1.4-2.6,3-3.4,4.8c-1.3,2.8-3.6,5-6.4,6.2
			c-1.1,0.5-2.3,0.9-3.4,1.3c-0.6,0.2-1.2,0.4-1.9,0.5c-0.4,0.2-0.9,0-1.1-0.4c0-0.1,0-0.1-0.1-0.2c-0.1-0.4,0.2-0.9,0.6-1
			c0,0,0,0,0,0c1.5-0.5,3.1-0.9,4.6-1.5c2.6-1,4.8-3,6-5.6c0.9-2.1,2.2-3.9,3.8-5.4c3.1-2.9,7.6-3.7,11.5-2.2c4.1,1.5,6.3,4.7,7,8.9
			C133.2,97.1,133.1,97.6,133.2,97.9z"/>
		<path class="st0" d="M126.4,98.3c0,0.8-0.2,1.5-0.5,2.2c-2.4,5.7-6.7,10.4-12.1,13.4c-3.6,2.1-7.6,3.6-11.7,4.5
			c-0.7,0.2-1.2-0.1-1.3-0.6s0.2-0.9,0.9-1.1c5.2-1.1,10.1-3.3,14.3-6.4c3.7-2.8,6.6-6.5,8.3-10.8c0.6-1.3,0-2.8-1.3-3.4
			c0,0-0.1,0-0.1-0.1c-1.2-0.6-2.7-0.1-3.3,1.1c0,0.1-0.1,0.2-0.1,0.2c-2.2,5.3-6.1,8.9-11.2,11.5c-2.4,1.2-4.9,2.1-7.4,2.6
			c-0.5,0.2-1,0-1.2-0.5c-0.2-0.3-0.1-0.8,0.2-1c0.2-0.2,0.5-0.3,0.8-0.3c3.5-0.8,6.8-2.2,9.7-4.1c3.4-2.2,6-5.3,7.5-9
			c0.7-1.9,2.8-3,4.8-2.5C124.9,94.4,126.4,96.2,126.4,98.3z"/>
		<path class="st0" d="M141.6,123.4c0,0.5-0.4,0.9-0.9,0.9c-0.1,0-0.2,0-0.3-0.1c-4.2-1.7-8.2-3.8-11.1-7.5
			c-0.9-1.2-1.6-2.4-2.1-3.8c-0.3-0.7-0.5-0.8-1-0.3c-6.1,6.3-13.8,10-22.1,12.3c-0.7,0.2-1.1,0-1.3-0.5c-0.1-0.5,0.1-1,0.8-1.2
			c5.3-1.5,10.4-3.7,15-6.7c2.2-1.5,4.2-3.2,6.1-5.1c0.4-0.5,0.9-0.9,1.4-1.3c0.5-0.5,1.3-0.4,1.8,0.1c0.1,0.2,0.2,0.3,0.3,0.5
			c0.2,0.5,0.3,1,0.5,1.5c1.1,2.9,3.1,5.3,5.7,6.9c1.9,1.3,4,2.4,6.2,3.2C141.4,122.7,141.6,123,141.6,123.4z"/>
		<path class="st0" d="M140.4,126.4c0,0.5-0.4,0.9-0.9,0.9c-0.2,0-0.3,0-0.4-0.1c-1.6-0.6-3.2-1.3-4.7-2.1c-3.2-1.5-6-3.8-8.1-6.6
			c-0.4-0.6-0.8-0.6-1.5,0c-1.6,1.4-3.3,2.6-5.2,3.7c-4.5,2.5-9.2,4.5-14.1,5.9c-0.5,0.2-1,0-1.2-0.5c0,0,0-0.1,0-0.1
			c-0.1-0.5,0.2-0.9,0.8-1.1c3.3-1,6.4-2.2,9.5-3.6c3.3-1.4,6.3-3.3,9-5.7c0.4-0.3,0.8-0.6,1.2-0.9c0.6-0.5,1.5-0.5,2,0.1
			c0.1,0.1,0.1,0.1,0.1,0.2c0.1,0.2,0.3,0.3,0.4,0.5c2,2.8,4.7,5,7.9,6.5c1.4,0.7,2.9,1.4,4.4,2C140,125.7,140.3,126,140.4,126.4z"
			/>
		<path class="st0" d="M138.8,129.4c0,0.7-0.6,1-1.3,0.8c-1.3-0.5-2.6-1.1-3.9-1.7c-2.8-1.3-5.5-3-7.8-5.2c-0.7-0.7-1-0.7-1.8-0.1
			c-5.1,3.6-10.9,5.8-16.8,7.8c-0.3,0.2-0.7,0.2-1,0c-0.3-0.2-0.4-0.5-0.4-0.8c0.1-0.4,0.4-0.7,0.7-0.8c1.7-0.6,3.4-1.1,5-1.8
			c4-1.4,7.8-3.4,11.3-5.8c1.8-1.3,2.5-1.3,4.1,0.3c3.2,2.8,6.9,5,10.9,6.4C138.6,128.8,138.8,129,138.8,129.4z"/>
		<path class="st0" d="M124.7,125.3c0.7,0.1,1.4,0.3,1.9,0.8c2.1,1.5,4.3,2.8,6.6,3.9c1,0.5,2,0.9,3,1.3c0.6,0.3,0.9,0.7,0.7,1.2
			s-0.7,0.7-1.4,0.4c-3.3-1.3-6.4-3-9.3-5c-0.2-0.2-0.4-0.3-0.6-0.4c-0.5-0.4-1.2-0.5-1.7-0.1c-4.5,2.7-9.4,4.9-14.4,6.4h-0.1
			c-0.7,0.2-1.1,0-1.3-0.5c-0.2-0.5,0.1-0.9,0.7-1.2c1.5-0.5,3-1.1,4.6-1.6c3.2-1.2,6.3-2.6,9.2-4.4
			C123.1,125.8,123.9,125.5,124.7,125.3z"/>
		<path class="st0" d="M122.9,98.5c-0.1,0.2-0.1,0.4-0.2,0.6c-2.1,4.9-5.7,8.9-10.2,11.6c-3.4,2-7.1,3.5-11,4.3
			c-0.7,0.1-1.1-0.1-1.3-0.6s0.2-0.9,0.8-1.1c4.2-0.9,8.1-2.5,11.7-4.9c3.8-2.4,6.7-6,8.4-10.1c0.2-0.5,0.5-0.8,1.1-0.7
			C122.6,97.6,122.9,98,122.9,98.5z"/>
		<path class="st0" d="M124.4,129.5c0.5,0,1,0.2,1.4,0.4c2.7,1.5,5.4,3,8.3,4.2c0.4,0.1,0.7,0.6,0.5,1c0,0,0,0.1,0,0.1
			c-0.2,0.4-0.7,0.7-1.1,0.5c0,0-0.1,0-0.1-0.1c-2.3-1-4.5-2.1-6.6-3.3c-0.4-0.2-0.8-0.4-1.1-0.7c-0.7-0.5-1.7-0.6-2.5-0.1
			c-2.3,1.2-4.6,2.3-7,3.1c-1.5,0.6-3,1.1-4.6,1.6c-0.7,0.2-1.2,0-1.3-0.5c-0.2-0.5,0.1-1,0.8-1.2c4-1.3,7.9-2.9,11.6-4.8
			C123.2,129.7,123.8,129.5,124.4,129.5z"/>
		<path class="st0" d="M124.3,133.3c0.5,0,1,0.2,1.5,0.4c1.9,1,3.8,1.9,5.7,2.8c0.6,0.3,0.8,0.7,0.5,1.1c-0.2,0.5-0.8,0.7-1.2,0.4
			c0,0,0,0,0,0c-1.7-0.7-3.4-1.6-5.1-2.5c-0.8-0.5-1.9-0.6-2.8-0.1c-2.6,1.2-5.3,2.3-8.1,3.3l-0.4,0.1c-0.5,0.2-1-0.1-1.1-0.5
			c-0.2-0.5,0.1-1,0.5-1.1l0,0c1.3-0.5,2.5-0.9,3.8-1.4c1.7-0.7,3.4-1.4,5.1-2.1C123.2,133.5,123.7,133.4,124.3,133.3z"/>
		<path class="st0" d="M128.5,139.5c0,0.5-0.3,0.8-0.8,0.9c-0.1,0-0.3,0-0.4-0.1c-0.7-0.3-1.4-0.7-2.1-1c-0.6-0.3-1.4-0.4-2-0.1
			c-1.4,0.6-2.9,1.1-4.3,1.7c-0.4,0.2-0.9,0.1-1.1-0.3c0,0,0-0.1-0.1-0.1c-0.2-0.4,0-1,0.5-1.1c0,0,0.1,0,0.1,0l4.8-1.9
			c0.9-0.4,1.8-0.3,2.7,0.1l2.2,1.1C128.3,138.7,128.5,139.1,128.5,139.5z"/>
		<path class="st0" d="M69,108.6c0-27.1,0-54.2,0-81.3c0-3.9,1.5-6.8,5.1-8.5c1.1-0.5,2.3-0.7,3.5-0.7h88.9c4.6-0.1,8.4,3.6,8.5,8.2
			c0,0,0,0,0,0c0,0.4,0,0.7,0,1.1c0,54.3,0,108.6,0,162.8c0,3.9-1.5,6.9-5.1,8.6c-1,0.5-2.2,0.7-3.3,0.7H77.5
			c-4.5,0.1-8.3-3.5-8.4-8c0-0.6,0-1.2,0-1.8L69,108.6z M78.8,103.7V167c0,2.4,0.2,2.6,2.5,2.6h82.2c0.8,0.1,1.6-0.5,1.7-1.3
			c0-0.1,0-0.3,0-0.4c0-0.3,0-0.6,0-1V40.1c0-1.8-0.4-2.1-2.3-2.1c-27.2,0-54.4,0-81.6,0c-2.3,0-2.5,0.2-2.5,2.5V103.7z
			 M112.5,185.8c0,5.3,4.3,9.6,9.5,9.6s9.6-4.3,9.6-9.5c0-5.3-4.2-9.5-9.5-9.6c-5.2-0.1-9.5,4.1-9.6,9.3
			C112.5,185.7,112.5,185.8,112.5,185.8L112.5,185.8z M122.2,23.5h-19.3c-1.4,0-2.1,0.7-1.6,1.9c0.3,0.9,1.1,0.7,1.8,0.7h38.7
			c1,0,1.3-0.6,1.2-1.5c-0.1-1.1-0.9-1.1-1.7-1.1L122.2,23.5z"/>
	</g>
</g>
</svg>
